<svg aria-hidden="true" style="position: absolute; width: 0; height: 0; overflow: hidden;" version="1.1" xmlns="http://www.w3.org/2000/svg" xmlns:xlink="http://www.w3.org/1999/xlink">
<defs>

<symbol id="icon-Logo" viewBox="0 0 123 20">
<path fill="#6d8434" style="fill: var(--color1, #6d8434)" d="M20 10c0 5.523-4.477 10-10 10s-10-4.477-10-10c0-5.523 4.477-10 10-10s10 4.477 10 10z"></path>
<path fill="#e8e8e2" style="fill: var(--color2, #e8e8e2)" d="M10.581 5.556c-0.181-0.275-0.424-0.503-0.71-0.667-0.785-0.451-1.797-0.371-2.731 0.152-1.734 0.971-2.869 2.797-2.869 4.959 0 2.885 2.089 5.215 4.816 5.656 0.298 0.048 0.603 0.073 0.913 0.073 0.757 0.003 1.507-0.145 2.206-0.435s1.334-0.716 1.867-1.253c0.533-0.537 0.954-1.175 1.238-1.877s0.426-1.452 0.418-2.209c-0.012-1.006-0.416-2.241-1.054-3.228-0.635-0.983-1.613-1.879-2.827-1.868-0.593 0.001-0.997 0.327-1.268 0.697v-0.001zM14.047 7.715c-0.217-0.035-0.439-0.041-0.658-0.017l-0.604-1.016-0.895 0.531 0.465 0.781c-0.194 0.092-0.38 0.2-0.555 0.326-0.003-0.010-0.006-0.020-0.009-0.030-0.139-0.422-0.408-0.768-0.766-1.112l0.002-0.010c0.036-0.168 0.093-0.385 0.179-0.596 0.194-0.477 0.42-0.67 0.646-0.67h0.006c0.672-0.007 1.373 0.509 1.943 1.391 0.089 0.137 0.171 0.278 0.247 0.423l-0.001 0.001zM10.838 9.276c-0.172 0.004-0.348 0.023-0.521 0.061-0.141-0.235-0.329-0.438-0.553-0.596-0.411-0.289-0.975-0.432-1.584-0.205-0.056-0.032-0.112-0.064-0.169-0.094l1.684-1.651-0.729-0.744-1.997 1.958c-0.422-0.122-0.816-0.166-1.17-0.117 0.408-0.818 1.053-1.494 1.852-1.939 0.71-0.398 1.321-0.376 1.704-0.157 0.365 0.209 0.667 0.683 0.591 1.53l-0.023 0.262 0.197 0.174c0.428 0.379 0.606 0.623 0.683 0.857 0.054 0.164 0.072 0.363 0.037 0.66zM9.375 9.799c-0.445 0.372-0.743 0.895-0.917 1.459l-1.549-1.701-0.77 0.702 2.129 2.337c-0.003 0.621 0.077 1.256 0.193 1.831-0.922-0.317-1.721-0.914-2.286-1.708s-0.866-1.746-0.862-2.72c0-0.542 0.151-0.837 0.328-0.966 0.167-0.123 0.534-0.223 1.286 0.054 0.272 0.101 0.586 0.255 0.946 0.479l0.262 0.162 0.269-0.151c0.324-0.182 0.572-0.118 0.762 0.016 0.083 0.058 0.155 0.131 0.209 0.206zM10.294 14.678l3.798-4.186-0.771-0.7-1.527 1.683 0.004-0.528-1.042-0.007-0.012 1.693-1.293 1.426c-0.098-0.532-0.156-1.103-0.137-1.639 0.033-0.914 0.398-1.665 0.939-1.963 0.224-0.123 0.619-0.172 0.932-0.117l0.464 0.081 0.128-0.453c0.067-0.236 0.243-0.489 0.519-0.714 0.28-0.226 0.606-0.389 0.955-0.477 0.417-0.102 0.773-0.049 1.007 0.112 0.205 0.141 0.41 0.428 0.43 1.018v0.009l0.002 0.083c0.005 1.194-0.447 2.344-1.265 3.214s-1.937 1.394-3.129 1.464z"></path>
<path fill="#010101" style="fill: var(--color3, #010101)" d="M25 12.992c0.735-0.090 1.14-0.42 1.14-1.005v-6.105c0-0.585-0.405-0.93-1.14-1.005v-0.6h7.62c0.135 0 0.195 0.045 0.21 0.15 0.045 0.45 0.075 0.9 0.315 1.995h-0.375c-0.525-0.915-0.975-1.395-1.86-1.395h-1.275c-0.675 0-0.96 0.375-0.96 0.975v1.575c0 0.6 0.285 0.93 0.96 0.93h0.6c1.215 0 1.44-0.285 1.56-0.96h0.33v2.67h-0.33c-0.12-0.63-0.345-0.945-1.56-0.945h-0.6c-0.675 0-0.96 0.33-0.96 0.93v1.785c0 0.585 0.405 0.915 1.29 1.005v0.6h-4.965v-0.6z"></path>
<path fill="#010101" style="fill: var(--color3, #010101)" d="M36.931 13.682c-1.845 0-3.72-1.11-3.72-3.54 0-2.415 1.875-3.45 3.675-3.45 1.86 0 3.72 1.11 3.72 3.54 0 2.415-1.86 3.45-3.675 3.45zM35.611 9.482c0 1.86 0.615 3.51 1.575 3.51 0.585 0 1.020-0.585 1.020-2.13 0-1.845-0.585-3.495-1.575-3.495-0.6 0-1.020 0.6-1.020 2.115z"></path>
<path fill="#010101" style="fill: var(--color3, #010101)" d="M44.995 13.682c-1.845 0-3.72-1.11-3.72-3.54 0-2.415 1.875-3.45 3.675-3.45 1.86 0 3.72 1.11 3.72 3.54 0 2.415-1.86 3.45-3.675 3.45zM43.675 9.482c0 1.86 0.615 3.51 1.575 3.51 0.585 0 1.020-0.585 1.020-2.13 0-1.845-0.585-3.495-1.575-3.495-0.6 0-1.020 0.6-1.020 2.115z"></path>
<path fill="#010101" style="fill: var(--color3, #010101)" d="M52.204 13.682c-1.41 0-2.865-1.155-2.865-3.375 0-2.385 1.635-3.615 3.225-3.615 1.65 0 2.085 1.29 2.085-0.225v-0.9c0-0.705-0.39-0.825-0.945-0.78v-0.585l2.445-0.405c0.51-0.075 0.75 0.15 0.75 0.6v7.665c0 0.495 0.195 0.825 0.63 0.645v0.33c-0.21 0.51-0.75 0.645-1.215 0.645-0.51 0-1.155-0.165-1.335-0.615-0.12-0.285-0.255-0.435-0.48-0.435-0.3 0-0.9 1.050-2.295 1.050zM51.754 9.527c0 1.485 0.66 2.94 1.62 2.94 0.585 0 1.275-0.42 1.275-1.68v-0.705c0-1.95-0.915-2.715-1.665-2.715-0.765 0-1.23 0.945-1.23 2.16z"></path>
<path fill="#010101" style="fill: var(--color3, #010101)" d="M60.678 12.992c0.735-0.090 1.14-0.42 1.14-1.005v-6.090c0-0.6-0.405-0.945-1.14-1.020v-0.6h4.635c2.94 0 4.395 0.705 4.395 2.22 0 0.855-0.495 1.695-2.205 1.965 1.92 0.27 2.745 1.17 2.745 2.445 0 1.74-1.545 2.685-3.645 2.685-1.2 0-3.75-0.375-5.925 0v-0.6zM64.352 12.212c0 0.39 0.24 0.57 0.675 0.57h0.525c1.14 0 1.995-0.435 1.995-1.89 0-1.41-0.87-2.025-2.52-2.025-0.39 0-0.675 0.3-0.675 0.9v2.445zM64.352 7.248c0 0.6 0.285 0.9 0.96 0.9h0.39c1.035 0 1.305-0.81 1.305-1.5 0-1.050-0.57-1.635-1.545-1.635h-0.15c-0.675 0-0.96 0.315-0.96 0.915v1.32z"></path>
<path fill="#010101" style="fill: var(--color3, #010101)" d="M74.644 13.682c-1.845 0-3.72-1.11-3.72-3.54 0-2.415 1.875-3.45 3.675-3.45 1.86 0 3.72 1.11 3.72 3.54 0 2.415-1.86 3.45-3.675 3.45zM73.324 9.482c0 1.86 0.615 3.51 1.575 3.51 0.585 0 1.020-0.585 1.020-2.13 0-1.845-0.585-3.495-1.575-3.495-0.6 0-1.020 0.6-1.020 2.115z"></path>
<path fill="#010101" style="fill: var(--color3, #010101)" d="M81.58 13.682c-1.050 0-2.19-0.435-2.19-2.79v-2.385c0-0.69-0.39-0.81-0.945-0.795v-0.585l2.445-0.405c0.51-0.075 0.75 0.15 0.75 0.6v3.21c0 1.050 0.435 1.8 1.245 1.8 0.825 0 1.245-0.75 1.245-1.8v-2.025c0-0.69-0.39-0.81-0.945-0.795v-0.585l2.43-0.405c0.525-0.075 0.765 0.15 0.765 0.6v4.74c0 0.495 0.195 0.825 0.63 0.645v0.33c-0.21 0.51-0.75 0.645-1.26 0.645-1.080 0-1.38-0.675-1.455-1.005-0.045-0.21-0.165-0.315-0.27-0.315s-0.18 0.090-0.255 0.195c-0.42 0.57-1.005 1.125-2.19 1.125z"></path>
<path fill="#010101" style="fill: var(--color3, #010101)" d="M90.525 13.667c-1.38 0-2.22-0.765-2.22-2.22v-3.285c0-0.525-0.12-0.63-0.465-0.63h-0.675v-0.48c1.245-0.285 1.845-0.855 2.355-1.68 0.12-0.195 0.225-0.255 0.42-0.255h0.27c0.225 0 0.36 0.135 0.36 0.36l-0.015 0.93c0 0.33 0.165 0.42 0.93 0.42h0.975v0.795l-0.975-0.060c-0.765-0.045-0.93 0.090-0.93 0.63v3.18c0 0.825 0.090 1.38 0.825 1.38 0.195 0 0.495-0.030 0.78-0.24 0.195 0.24 0.27 0.45 0.075 0.63-0.345 0.3-0.96 0.525-1.71 0.525z"></path>
<path fill="#010101" style="fill: var(--color3, #010101)" d="M93.065 13.008c0.69-0.045 0.945-0.27 0.945-1.080v-3.435c0-0.705-0.39-0.825-0.93-0.78v-0.585l2.43-0.405c0.51-0.075 0.75 0.15 0.75 0.6v4.605c0 0.81 0.255 1.035 0.93 1.080v0.585h-4.125v-0.585zM93.65 4.833c0-0.72 0.6-1.275 1.305-1.275 0.69 0 1.275 0.555 1.275 1.275s-0.585 1.275-1.275 1.275c-0.705 0-1.305-0.555-1.305-1.275z"></path>
<path fill="#010101" style="fill: var(--color3, #010101)" d="M101.669 15.873c0.855-0.060 1.11-0.285 1.11-1.035v-1.605c0-0.27-0.135-0.36-0.27-0.36-0.075 0-0.15 0.030-0.21 0.090-0.3 0.3-0.945 0.72-1.89 0.72-1.545 0-2.97-1.14-2.97-3.345 0-2.4 1.665-3.645 3.39-3.645 1.5 0 2.13 0.915 2.685 0.915 0.525 0 0.735-0.9 1.155-0.9 0.27 0 0.36 0.15 0.36 0.36v7.77c0 0.75 0.255 0.975 0.93 1.035v0.57h-4.29v-0.57zM99.854 9.513c0 1.485 0.63 2.955 1.68 2.955 0.57 0 1.23-0.42 1.245-2.1-0.015-2.25-0.945-3-1.695-3-0.81 0-1.23 0.945-1.23 2.145z"></path>
<path fill="#010101" style="fill: var(--color3, #010101)" d="M108.871 13.682c-1.050 0-2.19-0.435-2.19-2.79v-2.385c0-0.69-0.39-0.81-0.945-0.795v-0.585l2.445-0.405c0.51-0.075 0.75 0.15 0.75 0.6v3.21c0 1.050 0.435 1.8 1.245 1.8 0.825 0 1.245-0.75 1.245-1.8v-2.025c0-0.69-0.39-0.81-0.945-0.795v-0.585l2.43-0.405c0.525-0.075 0.765 0.15 0.765 0.6v4.74c0 0.495 0.195 0.825 0.63 0.645v0.33c-0.21 0.51-0.75 0.645-1.26 0.645-1.080 0-1.38-0.675-1.455-1.005-0.045-0.21-0.165-0.315-0.27-0.315s-0.18 0.090-0.255 0.195c-0.42 0.57-1.005 1.125-2.19 1.125z"></path>
<path fill="#010101" style="fill: var(--color3, #010101)" d="M118.636 13.682c-1.875 0-3.735-1.080-3.735-3.435 0-2.46 2.010-3.555 3.87-3.555 1.59 0 2.88 0.795 2.88 2.115 0 1.35-1.305 1.425-2.625 1.53l-1.17 0.090c-0.255 0.015-0.39 0.135-0.39 0.48 0 1.11 1.2 1.605 2.19 1.605 0.525 0 1.245-0.15 1.785-0.765l0.45 0.405c-0.285 0.585-1.5 1.53-3.255 1.53zM117.361 9.197c0 0.435 0.105 0.66 0.495 0.645l0.54-0.060c1.035-0.105 1.245-0.375 1.245-0.96 0-0.72-0.3-1.44-1.080-1.44-0.975 0-1.2 1.095-1.2 1.815z"></path>
</symbol>

<symbol id="icon-check" viewBox="0 0 20 20">
<path fill="none" stroke="#e8e8e2" style="stroke: var(--color1, #e8e8e2)" stroke-linejoin="round" stroke-linecap="round" stroke-miterlimit="4" stroke-width="2.2222" d="M16.667 5l-9.167 9.167-4.167-4.167"></path>
</symbol>

<symbol id="icon-discount" viewBox="0 0 20 20">
<path fill="#6d8434" style="fill: var(--color2, #6d8434)" d="M20 10c0 5.523-4.477 10-10 10s-10-4.477-10-10c0-5.523 4.477-10 10-10s10 4.477 10 10z"></path>
<path fill="#fafafa" style="fill: var(--color3, #fafafa)" d="M16.842 13.039l-0.146 0.394-2.684-0.989 0.146-0.394 0.221 0.082 0.003-0.008c-0.094-0.15-0.171-0.391-0.062-0.688 0.182-0.492 0.699-0.714 1.329-0.482s0.879 0.737 0.697 1.229c-0.109 0.296-0.318 0.433-0.501 0.48l-0.003 0.008 0.998 0.368zM14.618 11.623c-0.119 0.323 0.074 0.62 0.498 0.776 0.428 0.158 0.764 0.056 0.883-0.267 0.128-0.345-0.12-0.645-0.495-0.784s-0.758-0.071-0.886 0.275z"></path>
<path fill="#fafafa" style="fill: var(--color3, #fafafa)" d="M15.683 14.081c0.069-0.094 0.204-0.143 0.32-0.058s0.107 0.227 0.038 0.32c-0.073 0.1-0.203 0.149-0.32 0.064s-0.112-0.226-0.039-0.326zM15.528 13.71l-0.248 0.339-1.65-1.206 0.248-0.339 1.65 1.206z"></path>
<path fill="#fafafa" style="fill: var(--color3, #fafafa)" d="M13.643 14.564c-0.346 0.171-0.715 0.366-1.026-0.010-0.25-0.302-0.146-0.704 0.237-1.019 0.51-0.419 0.925-0.363 1.216-0.042l-0.315 0.259c-0.156-0.157-0.349-0.241-0.683 0.034-0.225 0.186-0.229 0.375-0.148 0.474 0.163 0.197 0.364 0.058 0.642-0.077 0.299-0.147 0.679-0.378 0.975-0.020 0.214 0.259 0.156 0.654-0.239 0.979-0.429 0.353-0.824 0.29-1.073 0.033l0.315-0.259c0.124 0.106 0.29 0.181 0.543-0.027 0.195-0.16 0.238-0.321 0.147-0.432-0.133-0.16-0.319-0.028-0.591 0.108z"></path>
<path fill="#fafafa" style="fill: var(--color3, #fafafa)" d="M11.469 15.726c0.082 0.192 0.289 0.388 0.63 0.272 0.39-0.132 0.443-0.522 0.319-0.886s-0.401-0.641-0.795-0.507c-0.341 0.116-0.386 0.393-0.327 0.614l-0.398 0.135c-0.122-0.457 0.11-0.903 0.614-1.074 0.579-0.197 1.097 0.092 1.303 0.698s-0.026 1.149-0.602 1.345c-0.504 0.171-0.943-0.039-1.142-0.461l0.398-0.135z"></path>
<path fill="#fafafa" style="fill: var(--color3, #fafafa)" d="M9.754 14.528c0.639 0.039 0.999 0.506 0.961 1.141s-0.453 1.054-1.092 1.015c-0.639-0.039-0.999-0.506-0.961-1.141s0.453-1.054 1.092-1.015zM9.733 14.872c-0.399-0.024-0.626 0.278-0.652 0.698-0.026 0.423 0.163 0.747 0.562 0.772s0.626-0.274 0.651-0.698c0.025-0.419-0.163-0.747-0.562-0.772z"></path>
<path fill="#fafafa" style="fill: var(--color3, #fafafa)" d="M6.732 15.797l-0.378-0.183 0.894-1.838 0.378 0.183-0.116 0.237 0.007 0.003c0.167-0.097 0.428-0.148 0.745 0.006 0.342 0.166 0.516 0.495 0.311 0.916l-0.618 1.27-0.381-0.185 0.565-1.162c0.121-0.248 0.093-0.457-0.166-0.583-0.292-0.141-0.564-0.056-0.697 0.217l-0.544 1.119z"></path>
<path fill="#fafafa" style="fill: var(--color3, #fafafa)" d="M4.896 14.348c-0.254-0.283-0.29-0.653 0.059-0.965l1.053-0.94 0.283 0.316-0.964 0.86c-0.206 0.184-0.26 0.387-0.068 0.602 0.216 0.241 0.501 0.266 0.728 0.063l0.928-0.828 0.28 0.313-1.525 1.361-0.28-0.313 0.197-0.176-0.005-0.006c-0.191 0.026-0.452-0.025-0.687-0.287z"></path>
<path fill="#fafafa" style="fill: var(--color3, #fafafa)" d="M4.030 12.11l0.158 0.35 1.010-0.455c0.212-0.095 0.191-0.209 0.064-0.45l0.314-0.141c0.053 0.068 0.102 0.147 0.148 0.249 0.138 0.306 0.076 0.536-0.318 0.713l-1.043 0.47 0.122 0.27-0.314 0.141-0.122-0.27-0.587 0.264-0.175-0.386 0.587-0.264-0.158-0.35 0.314-0.141z"></path>
<path fill="#fafafa" style="fill: var(--color3, #fafafa)" d="M2.809 7.905l0.091-0.41 2.792 0.621-0.091 0.41-0.23-0.051-0.002 0.008c0.113 0.136 0.222 0.365 0.153 0.673-0.114 0.511-0.597 0.802-1.252 0.656s-0.97-0.613-0.856-1.125c0.069-0.308 0.257-0.472 0.432-0.543l0.002-0.008-1.039-0.231zM5.202 9.011c0.075-0.336-0.156-0.604-0.598-0.703-0.445-0.099-0.764 0.047-0.839 0.383-0.080 0.359 0.205 0.623 0.596 0.71s0.761-0.032 0.841-0.391z"></path>
<path fill="#fafafa" style="fill: var(--color3, #fafafa)" d="M3.814 6.718c-0.055 0.102-0.183 0.169-0.31 0.101s-0.136-0.21-0.081-0.312c0.059-0.109 0.181-0.175 0.308-0.106s0.141 0.209 0.082 0.318zM4.017 7.064l0.201-0.369 1.797 0.974-0.201 0.369-1.797-0.974z"></path>
<path fill="#fafafa" style="fill: var(--color3, #fafafa)" d="M5.776 5.959c0.321-0.215 0.661-0.456 1.018-0.124 0.287 0.267 0.237 0.679-0.102 1.041-0.45 0.483-0.87 0.481-1.2 0.201l0.278-0.298c0.175 0.135 0.378 0.193 0.673-0.123 0.199-0.213 0.178-0.402 0.085-0.489-0.188-0.174-0.369-0.009-0.626 0.161-0.277 0.185-0.624 0.463-0.964 0.147-0.246-0.229-0.241-0.628 0.109-1.002 0.379-0.407 0.779-0.395 1.059-0.173l-0.278 0.298c-0.136-0.088-0.311-0.142-0.535 0.098-0.172 0.184-0.194 0.349-0.089 0.447 0.152 0.142 0.32-0.014 0.571-0.184z"></path>
<path fill="#fafafa" style="fill: var(--color3, #fafafa)" d="M7.748 4.531c-0.108-0.179-0.339-0.345-0.661-0.184-0.369 0.184-0.368 0.577-0.196 0.921s0.484 0.581 0.856 0.395c0.322-0.161 0.329-0.442 0.241-0.652l0.376-0.188c0.183 0.436 0.013 0.91-0.462 1.148-0.548 0.273-1.099 0.057-1.386-0.515s-0.13-1.142 0.414-1.414c0.476-0.238 0.94-0.089 1.194 0.302l-0.376 0.188z"></path>
<path fill="#fafafa" style="fill: var(--color3, #fafafa)" d="M9.607 5.478c-0.638 0.046-1.058-0.368-1.105-1.002s0.308-1.105 0.946-1.152c0.638-0.046 1.058 0.368 1.105 1.002s-0.308 1.105-0.946 1.152zM9.582 5.135c0.399-0.029 0.583-0.359 0.552-0.778-0.031-0.423-0.262-0.719-0.661-0.69s-0.583 0.355-0.552 0.778c0.031 0.419 0.262 0.719 0.661 0.69z"></path>
<path fill="#fafafa" style="fill: var(--color3, #fafafa)" d="M12.45 3.816l0.399 0.132-0.642 1.941-0.399-0.132 0.083-0.251-0.008-0.002c-0.153 0.118-0.404 0.204-0.739 0.093-0.361-0.119-0.577-0.422-0.43-0.866l0.443-1.341 0.403 0.133-0.406 1.227c-0.087 0.262-0.032 0.466 0.242 0.556 0.308 0.102 0.567-0.019 0.662-0.308l0.39-1.181z"></path>
<path fill="#fafafa" style="fill: var(--color3, #fafafa)" d="M14.464 5.003c0.289 0.247 0.373 0.609 0.068 0.964l-0.921 1.071-0.322-0.276 0.842-0.98c0.18-0.209 0.207-0.418-0.012-0.606-0.246-0.211-0.532-0.198-0.73 0.033l-0.811 0.943-0.319-0.273 1.333-1.55 0.319 0.273-0.172 0.2 0.006 0.005c0.186-0.051 0.452-0.034 0.719 0.195z"></path>
<path fill="#fafafa" style="fill: var(--color3, #fafafa)" d="M15.615 7.089l-0.204-0.325-0.94 0.587c-0.197 0.123-0.161 0.233-0.003 0.455l-0.292 0.182c-0.062-0.061-0.121-0.132-0.18-0.227-0.178-0.285-0.147-0.521 0.219-0.75l0.971-0.606-0.157-0.251 0.292-0.182 0.157 0.251 0.546-0.341 0.225 0.359-0.546 0.341 0.204 0.325-0.292 0.182z"></path>
<path fill="#fafafa" style="fill: var(--color3, #fafafa)" d="M10.972 9.222c-1.75 0.389-2.158 1.589-2.563 2.594l0.367 0.128 0.185-0.447c0.093 0.033 0.191 0.058 0.261 0.058 2.139 0 2.722-3.306 2.722-3.306-0.194 0.389-1.556 0.438-2.528 0.632s-1.361 1.021-1.361 1.41 0.34 0.729 0.34 0.729c0.632-1.799 2.576-1.799 2.576-1.799z"></path>
</symbol>


<symbol id="icon-heroicons-solid_shopping-cart" viewBox="0 0 20 20">
<path fill="#e8e8e2" style="fill: var(--color1, #e8e8e2)" d="M3 1c-0.265 0-0.52 0.105-0.707 0.293s-0.293 0.442-0.293 0.707c0 0.265 0.105 0.52 0.293 0.707s0.442 0.293 0.707 0.293h1.22l0.305 1.222c0.003 0.014 0.006 0.028 0.010 0.042l1.358 5.43-0.893 0.892c-1.26 1.26-0.368 3.414 1.414 3.414h8.586c0.265 0 0.52-0.105 0.707-0.293s0.293-0.442 0.293-0.707-0.105-0.52-0.293-0.707c-0.187-0.188-0.442-0.293-0.707-0.293h-8.586l1-1h6.586c0.186-0 0.368-0.052 0.526-0.15s0.286-0.237 0.368-0.403l3-6c0.076-0.152 0.112-0.322 0.105-0.492s-0.059-0.336-0.148-0.481c-0.090-0.145-0.215-0.265-0.363-0.348s-0.316-0.127-0.487-0.127h-10.72l-0.31-1.243c-0.054-0.216-0.179-0.408-0.355-0.545s-0.392-0.212-0.615-0.212h-2zM16 16.5c0 0.398-0.158 0.779-0.439 1.061s-0.663 0.439-1.061 0.439c-0.398 0-0.779-0.158-1.061-0.439s-0.439-0.663-0.439-1.061c0-0.398 0.158-0.779 0.439-1.061s0.663-0.439 1.061-0.439c0.398 0 0.779 0.158 1.061 0.439s0.439 0.663 0.439 1.061zM6.5 18c0.398 0 0.779-0.158 1.061-0.439s0.439-0.663 0.439-1.061c0-0.398-0.158-0.779-0.439-1.061s-0.663-0.439-1.061-0.439-0.779 0.158-1.061 0.439c-0.281 0.281-0.439 0.663-0.439 1.061s0.158 0.779 0.439 1.061 0.663 0.439 1.061 0.439z"></path>
</symbol>

<symbol id="icon-organic-food" viewBox="0 0 20 20">
<path fill="#fdc152" style="fill: var(--color4, #fdc152)" d="M20 10c0 5.523-4.477 10-10 10s-10-4.477-10-10c0-5.523 4.477-10 10-10s10 4.477 10 10z"></path>
<path fill="#010101" style="fill: var(--color5, #010101)" d="M15.734 10.739c0.065-0.508 0.457-0.771 0.961-0.706s0.818 0.417 0.753 0.925c-0.065 0.508-0.457 0.771-0.961 0.706s-0.818-0.417-0.753-0.925zM16.007 10.773c-0.041 0.317 0.189 0.515 0.522 0.557 0.336 0.043 0.605-0.090 0.646-0.408s-0.186-0.514-0.522-0.557c-0.333-0.043-0.605 0.090-0.646 0.408z"></path>
<path fill="#010101" style="fill: var(--color5, #010101)" d="M16.96 12.822c-0.019 0.054-0.036 0.092-0.058 0.136l-0.299-0.106 0.002-0.006c0.159-0.287 0.040-0.603-0.288-0.72l-0.787-0.279 0.112-0.317 1.542 0.546-0.112 0.317-0.29-0.103-0.002 0.006c0.164 0.15 0.252 0.323 0.181 0.526z"></path>
<path fill="#010101" style="fill: var(--color5, #010101)" d="M16.137 14.262l-0.177 0.285-1.294-0.803c-0.4-0.248-0.426-0.6-0.181-0.994 0.248-0.4 0.594-0.49 0.847-0.375l-0.179 0.288c-0.139-0.049-0.292-0.008-0.433 0.217-0.149 0.239-0.116 0.429 0.134 0.584l0.169 0.105 0.003-0.005c-0.058-0.138-0.082-0.329 0.055-0.55 0.216-0.348 0.62-0.459 1.058-0.187 0.44 0.273 0.518 0.683 0.302 1.031-0.137 0.22-0.319 0.284-0.463 0.296l-0.003 0.005 0.163 0.101zM15.281 13.214c-0.143 0.231-0.077 0.464 0.216 0.647s0.532 0.138 0.675-0.093c0.155-0.25 0.047-0.494-0.211-0.655-0.256-0.159-0.525-0.149-0.68 0.101z"></path>
<path fill="#010101" style="fill: var(--color5, #010101)" d="M14.662 15.266c0.082 0.086 0.194 0.102 0.357-0.052 0.195-0.185 0.209-0.314 0.076-0.478l0.237-0.225c0.204 0.238 0.228 0.556-0.129 0.895-0.262 0.249-0.552 0.335-0.852 0.019l-0.536-0.564c-0.079-0.083-0.14-0.11-0.226-0.010l-0.11-0.116c0.036-0.074 0.071-0.116 0.117-0.16 0.13-0.123 0.234-0.134 0.368-0.040l0.005-0.004c-0.025-0.175 0.041-0.375 0.224-0.549 0.241-0.229 0.522-0.231 0.712-0.032 0.247 0.26 0.132 0.524-0.11 0.864-0.15 0.209-0.239 0.338-0.131 0.452zM14.322 14.225c-0.202 0.192-0.246 0.424-0.063 0.616l0.17 0.179c0.013-0.065 0.082-0.184 0.173-0.315 0.16-0.236 0.193-0.378 0.078-0.498-0.104-0.109-0.226-0.108-0.358 0.018z"></path>
<path fill="#010101" style="fill: var(--color5, #010101)" d="M13.489 16.638c-0.267 0.146-0.562 0.107-0.741-0.222l-0.542-0.991 0.298-0.163 0.496 0.907c0.106 0.194 0.255 0.273 0.457 0.162 0.227-0.124 0.298-0.342 0.182-0.555l-0.477-0.873 0.295-0.161 0.785 1.435-0.295 0.161-0.101-0.185-0.006 0.003c-0.014 0.154-0.102 0.347-0.349 0.483z"></path>
<path fill="#010101" style="fill: var(--color5, #010101)" d="M12.458 17.324c0.088-0.029 0.199 0.003 0.235 0.112s-0.037 0.197-0.125 0.226c-0.094 0.031-0.201 0.001-0.237-0.108s0.033-0.199 0.127-0.23zM12.531 17.011l-0.32 0.104-0.505-1.555 0.32-0.104 0.505 1.555z"></path>
<path fill="#010101" style="fill: var(--color5, #010101)" d="M10.519 16.835c0.034 0.163 0.164 0.35 0.45 0.313 0.327-0.042 0.431-0.339 0.392-0.644s-0.211-0.567-0.541-0.524c-0.286 0.037-0.365 0.247-0.355 0.429l-0.333 0.043c-0.023-0.378 0.231-0.691 0.653-0.745 0.486-0.062 0.845 0.247 0.909 0.755s-0.205 0.897-0.687 0.959c-0.422 0.054-0.733-0.181-0.821-0.543l0.333-0.043z"></path>
<path fill="#010101" style="fill: var(--color5, #010101)" d="M7.277 17.332c0.205 0.074 0.291 0.077 0.346-0.1l0.053-0.171-0.287-0.090 0.082-0.263 0.287 0.090 0.405-1.298 0.324 0.101-0.405 1.298 0.223 0.070-0.082 0.263-0.223-0.070-0.062 0.199c-0.103 0.33-0.28 0.402-0.536 0.322-0.079-0.025-0.147-0.056-0.207-0.088l0.082-0.263z"></path>
<path fill="#010101" style="fill: var(--color5, #010101)" d="M7.252 15.044c0.448 0.247 0.549 0.708 0.303 1.154s-0.689 0.607-1.137 0.359c-0.448-0.247-0.549-0.708-0.303-1.154s0.689-0.607 1.137-0.359zM7.119 15.285c-0.28-0.155-0.548-0.014-0.71 0.281-0.164 0.297-0.139 0.596 0.142 0.751s0.546 0.016 0.71-0.281c0.162-0.294 0.139-0.596-0.142-0.751z"></path>
<path fill="#010101" style="fill: var(--color5, #010101)" d="M6.063 14.172c0.371 0.353 0.351 0.824 0.001 1.193s-0.82 0.412-1.191 0.060c-0.371-0.353-0.351-0.824-0.001-1.193s0.82-0.412 1.191-0.060zM5.874 14.371c-0.232-0.22-0.527-0.152-0.758 0.092-0.234 0.246-0.285 0.541-0.053 0.762s0.525 0.154 0.758-0.092c0.231-0.244 0.285-0.541 0.053-0.762z"></path>
<path fill="#010101" style="fill: var(--color5, #010101)" d="M2.928 13.893l-0.173-0.288 1.961-1.178 0.173 0.288-0.162 0.097 0.003 0.006c0.141 0.016 0.33 0.089 0.46 0.306 0.216 0.359 0.096 0.793-0.365 1.070s-0.9 0.179-1.116-0.181c-0.13-0.217-0.111-0.415-0.049-0.553l-0.003-0.005-0.73 0.438zM4.925 13.216c-0.142-0.236-0.424-0.264-0.734-0.078-0.313 0.188-0.417 0.449-0.276 0.684 0.152 0.252 0.463 0.248 0.737 0.084s0.424-0.438 0.272-0.69z"></path>
<path fill="#010101" style="fill: var(--color5, #010101)" d="M4.28 10.235c0.020 0.512-0.323 0.836-0.832 0.855s-0.875-0.277-0.895-0.788 0.323-0.836 0.832-0.855c0.508-0.020 0.875 0.277 0.895 0.788zM4.005 10.245c-0.012-0.32-0.271-0.476-0.607-0.463-0.339 0.013-0.582 0.189-0.57 0.509s0.268 0.476 0.607 0.463c0.336-0.013 0.582-0.189 0.57-0.509z"></path>
<path fill="#010101" style="fill: var(--color5, #010101)" d="M2.73 8.35c0.010-0.057 0.021-0.097 0.035-0.143l0.312 0.056-0.001 0.006c-0.11 0.309 0.058 0.602 0.401 0.663l0.822 0.147-0.059 0.331-1.61-0.288 0.059-0.331 0.302 0.054 0.001-0.006c-0.186-0.121-0.301-0.278-0.264-0.489z"></path>
<path fill="#010101" style="fill: var(--color5, #010101)" d="M3.304 6.803l0.129-0.31 1.407 0.583c0.435 0.18 0.518 0.523 0.34 0.951-0.18 0.435-0.507 0.58-0.775 0.507l0.13-0.313c0.145 0.026 0.29-0.039 0.392-0.285 0.108-0.26 0.045-0.442-0.227-0.555l-0.183-0.076-0.002 0.006c0.079 0.126 0.134 0.312 0.035 0.551-0.157 0.378-0.537 0.553-1.013 0.356-0.479-0.198-0.622-0.59-0.465-0.968 0.099-0.239 0.269-0.332 0.409-0.368l0.002-0.006-0.177-0.073zM4.319 7.698c0.104-0.251 0.001-0.471-0.318-0.603s-0.547-0.050-0.651 0.201c-0.113 0.272 0.034 0.495 0.315 0.612 0.278 0.115 0.542 0.062 0.655-0.21z"></path>
<path fill="#010101" style="fill: var(--color5, #010101)" d="M4.597 5.57c-0.094-0.072-0.208-0.070-0.344 0.108-0.163 0.214-0.157 0.343 0.002 0.484l-0.198 0.26c-0.24-0.203-0.314-0.512-0.015-0.904 0.219-0.288 0.491-0.418 0.838-0.155l0.619 0.471c0.092 0.070 0.156 0.086 0.225-0.026l0.127 0.097c-0.024 0.079-0.051 0.126-0.090 0.177-0.109 0.143-0.21 0.17-0.357 0.099l-0.004 0.005c0.053 0.169 0.019 0.376-0.134 0.578-0.202 0.265-0.478 0.311-0.697 0.145-0.285-0.217-0.213-0.496-0.029-0.871 0.115-0.23 0.183-0.372 0.058-0.467zM5.099 6.544c0.169-0.222 0.176-0.458-0.036-0.619l-0.196-0.149c-0.002 0.067-0.051 0.194-0.121 0.338-0.12 0.258-0.13 0.404 0.002 0.504 0.12 0.091 0.24 0.070 0.351-0.075z"></path>
<path fill="#010101" style="fill: var(--color5, #010101)" d="M5.513 4.039c0.239-0.188 0.537-0.197 0.768 0.097l0.697 0.889-0.267 0.209-0.638-0.813c-0.136-0.174-0.296-0.227-0.477-0.085-0.204 0.16-0.238 0.386-0.088 0.577l0.614 0.783-0.264 0.207-1.009-1.286 0.264-0.207 0.13 0.166 0.005-0.004c-0.011-0.154 0.043-0.359 0.265-0.533z"></path>
<path fill="#010101" style="fill: var(--color5, #010101)" d="M6.434 3.181c-0.082 0.043-0.197 0.030-0.25-0.072s0.004-0.2 0.087-0.243c0.088-0.046 0.198-0.034 0.251 0.068s0 0.202-0.088 0.247zM6.413 3.502l0.298-0.155 0.753 1.452-0.298 0.155-0.753-1.452z"></path>
<path fill="#010101" style="fill: var(--color5, #010101)" d="M8.428 3.345c-0.060-0.156-0.219-0.319-0.495-0.236-0.316 0.095-0.37 0.405-0.282 0.699s0.301 0.525 0.62 0.429c0.276-0.083 0.32-0.303 0.28-0.481l0.322-0.096c0.084 0.369-0.115 0.719-0.523 0.842-0.469 0.141-0.873-0.106-1.020-0.596s0.055-0.919 0.521-1.058c0.408-0.122 0.752 0.058 0.899 0.402l-0.322 0.096z"></path>
<path fill="#010101" style="fill: var(--color5, #010101)" d="M11.532 2.325c-0.214-0.040-0.3-0.029-0.325 0.155l-0.025 0.177 0.298 0.042-0.038 0.273-0.298-0.042-0.188 1.347-0.336-0.047 0.188-1.347-0.231-0.032 0.038-0.273 0.231 0.032 0.029-0.206c0.048-0.342 0.21-0.442 0.477-0.405 0.082 0.012 0.154 0.031 0.219 0.053l-0.038 0.273z"></path>
<path fill="#010101" style="fill: var(--color5, #010101)" d="M11.935 4.575c-0.483-0.171-0.657-0.609-0.487-1.089s0.581-0.711 1.064-0.54c0.483 0.171 0.657 0.609 0.487 1.089s-0.581 0.711-1.064 0.54zM12.027 4.316c0.302 0.107 0.543-0.076 0.655-0.393 0.113-0.32 0.040-0.611-0.262-0.717s-0.542 0.073-0.655 0.393c-0.112 0.317-0.040 0.611 0.262 0.717z"></path>
<path fill="#010101" style="fill: var(--color5, #010101)" d="M13.231 5.226c-0.424-0.287-0.481-0.756-0.196-1.177s0.742-0.541 1.166-0.253c0.424 0.287 0.481 0.756 0.196 1.177s-0.742 0.541-1.166 0.253zM13.386 4.998c0.265 0.18 0.544 0.064 0.733-0.214 0.19-0.281 0.193-0.581-0.072-0.76s-0.543-0.066-0.733 0.214c-0.189 0.278-0.193 0.581 0.072 0.76z"></path>
<path fill="#010101" style="fill: var(--color5, #010101)" d="M16.405 5.019l0.217 0.257-1.747 1.477-0.217-0.257 0.144-0.122-0.004-0.005c-0.141 0.006-0.34-0.035-0.503-0.228-0.271-0.32-0.222-0.768 0.189-1.115s0.86-0.321 1.131-0.001c0.163 0.193 0.176 0.392 0.137 0.538l0.004 0.005 0.65-0.55zM14.542 6.007c0.178 0.21 0.461 0.193 0.737-0.040 0.279-0.236 0.34-0.51 0.162-0.72-0.19-0.225-0.497-0.171-0.741 0.036s-0.348 0.5-0.158 0.725z"></path>
<path fill="#010101" style="fill: var(--color5, #010101)" d="M11 9.2c-1.8 0.4-2.22 1.634-2.636 2.668l0.378 0.132 0.19-0.46c0.096 0.034 0.196 0.060 0.268 0.060 2.2 0 2.8-3.4 2.8-3.4-0.2 0.4-1.6 0.45-2.6 0.65s-1.4 1.050-1.4 1.45c0 0.4 0.35 0.75 0.35 0.75 0.65-1.85 2.65-1.85 2.65-1.85z"></path>
</symbol>

<symbol id="icon-Vector" viewBox="0 0 20 20">
<path d="M19.844 2.446l-2.289-2.289-7.554 7.554-7.554-7.554-2.289 2.289 7.554 7.554-7.554 7.554 2.289 2.289 7.554-7.554 7.554 7.554 2.289-2.289-7.554-7.554 7.554-7.554z"></path>
</symbol>

<symbol id="icon-icon-logo-footer" viewBox="0 0 110 20">
<path fill="#e8e8e2" style="fill: var(--color1, #e8e8e2)" d="M20 10c0 5.523-4.477 10-10 10s-10-4.477-10-10c0-5.523 4.477-10 10-10s10 4.477 10 10z"></path>
<path fill="#6d8434" style="fill: var(--color2, #6d8434)" d="M10.531 5.937c-0.165-0.251-0.388-0.46-0.649-0.61-0.718-0.412-1.643-0.34-2.497 0.139-1.585 0.888-2.623 2.558-2.623 4.534 0 2.638 1.91 4.768 4.403 5.171 0.272 0.044 0.551 0.067 0.835 0.067 0.692 0.003 1.378-0.133 2.017-0.398s1.219-0.654 1.707-1.146 0.872-1.074 1.132-1.716c0.26-0.641 0.39-1.328 0.382-2.020-0.011-0.92-0.38-2.049-0.963-2.951-0.581-0.899-1.474-1.718-2.584-1.708-0.542 0.001-0.912 0.299-1.159 0.637v-0zM13.7 7.911c-0.199-0.032-0.401-0.037-0.601-0.016l-0.552-0.929-0.818 0.486 0.425 0.714c-0.178 0.084-0.347 0.183-0.507 0.298-0.003-0.009-0.006-0.018-0.009-0.028-0.127-0.386-0.373-0.702-0.701-1.017l0.002-0.009c0.033-0.154 0.085-0.352 0.164-0.545 0.178-0.436 0.384-0.613 0.591-0.613h0.005c0.615-0.007 1.255 0.465 1.777 1.272 0.081 0.125 0.156 0.254 0.226 0.387l-0.001 0zM10.766 9.338c-0.157 0.004-0.319 0.021-0.476 0.056-0.128-0.215-0.301-0.401-0.506-0.545-0.376-0.264-0.891-0.395-1.449-0.187-0.051-0.029-0.102-0.058-0.154-0.086l1.539-1.509-0.667-0.68-1.826 1.79c-0.386-0.112-0.746-0.152-1.070-0.107 0.373-0.748 0.963-1.366 1.693-1.772 0.65-0.364 1.208-0.344 1.558-0.143 0.333 0.191 0.61 0.624 0.541 1.399l-0.021 0.239 0.18 0.159c0.391 0.346 0.554 0.57 0.625 0.784 0.050 0.15 0.066 0.331 0.034 0.603zM9.428 9.817c-0.407 0.341-0.679 0.818-0.838 1.334l-1.416-1.555-0.704 0.642 1.947 2.137c-0.002 0.568 0.070 1.149 0.176 1.674-0.843-0.289-1.574-0.836-2.090-1.562s-0.792-1.596-0.788-2.487c0-0.495 0.138-0.765 0.3-0.883 0.153-0.112 0.489-0.204 1.176 0.050 0.249 0.092 0.536 0.233 0.865 0.438l0.239 0.149 0.246-0.138c0.297-0.167 0.523-0.108 0.697 0.014 0.076 0.053 0.141 0.12 0.191 0.188zM10.269 14.277l3.472-3.827-0.705-0.64-1.396 1.539 0.003-0.483-0.952-0.007-0.011 1.548-1.182 1.303c-0.089-0.486-0.143-1.009-0.126-1.499 0.031-0.836 0.364-1.522 0.858-1.794 0.205-0.113 0.566-0.157 0.852-0.107l0.424 0.074 0.117-0.414c0.061-0.216 0.222-0.447 0.475-0.652 0.256-0.207 0.554-0.356 0.873-0.436 0.381-0.093 0.707-0.045 0.921 0.103 0.187 0.129 0.375 0.391 0.393 0.93v0.009l0.001 0.076c0.005 1.091-0.409 2.143-1.156 2.939s-1.771 1.275-2.861 1.338z"></path>
<path fill="#e8e8e2" style="fill: var(--color1, #e8e8e2)" d="M26.1 13.771c0.63-0.077 0.977-0.36 0.977-0.861v-5.233c0-0.501-0.347-0.797-0.977-0.861v-0.514h6.531c0.116 0 0.167 0.039 0.18 0.129 0.039 0.386 0.064 0.771 0.27 1.71h-0.321c-0.45-0.784-0.836-1.196-1.594-1.196h-1.093c-0.579 0-0.823 0.321-0.823 0.836v1.35c0 0.514 0.244 0.797 0.823 0.797h0.514c1.041 0 1.234-0.244 1.337-0.823h0.283v2.289h-0.283c-0.103-0.54-0.296-0.81-1.337-0.81h-0.514c-0.579 0-0.823 0.283-0.823 0.797v1.53c0 0.501 0.347 0.784 1.106 0.861v0.514h-4.256v-0.514zM36.326 14.363c-1.581 0-3.189-0.951-3.189-3.034 0-2.070 1.607-2.957 3.15-2.957 1.594 0 3.189 0.951 3.189 3.034 0 2.070-1.594 2.957-3.15 2.957zM35.195 10.763c0 1.594 0.527 3.009 1.35 3.009 0.501 0 0.874-0.501 0.874-1.826 0-1.581-0.501-2.996-1.35-2.996-0.514 0-0.874 0.514-0.874 1.813zM43.239 14.363c-1.581 0-3.189-0.951-3.189-3.034 0-2.070 1.607-2.957 3.15-2.957 1.594 0 3.189 0.951 3.189 3.034 0 2.070-1.594 2.957-3.15 2.957zM42.107 10.763c0 1.594 0.527 3.009 1.35 3.009 0.501 0 0.874-0.501 0.874-1.826 0-1.581-0.501-2.996-1.35-2.996-0.514 0-0.874 0.514-0.874 1.813zM49.418 14.363c-1.209 0-2.456-0.99-2.456-2.893 0-2.044 1.401-3.099 2.764-3.099 1.414 0 1.787 1.106 1.787-0.193v-0.771c0-0.604-0.334-0.707-0.81-0.669v-0.501l2.096-0.347c0.437-0.064 0.643 0.129 0.643 0.514v6.57c0 0.424 0.167 0.707 0.54 0.553v0.283c-0.18 0.437-0.643 0.553-1.041 0.553-0.437 0-0.99-0.141-1.144-0.527-0.103-0.244-0.219-0.373-0.411-0.373-0.257 0-0.771 0.9-1.967 0.9zM49.032 10.801c0 1.273 0.566 2.52 1.389 2.52 0.501 0 1.093-0.36 1.093-1.44v-0.604c0-1.671-0.784-2.327-1.427-2.327-0.656 0-1.054 0.81-1.054 1.851zM56.681 13.771c0.63-0.077 0.977-0.36 0.977-0.861v-5.22c0-0.514-0.347-0.81-0.977-0.874v-0.514h3.973c2.52 0 3.767 0.604 3.767 1.903 0 0.733-0.424 1.453-1.89 1.684 1.646 0.231 2.353 1.003 2.353 2.096 0 1.491-1.324 2.301-3.124 2.301-1.029 0-3.214-0.321-5.079 0v-0.514zM59.831 13.103c0 0.334 0.206 0.489 0.579 0.489h0.45c0.977 0 1.71-0.373 1.71-1.62 0-1.209-0.746-1.736-2.16-1.736-0.334 0-0.579 0.257-0.579 0.771v2.096zM59.831 8.847c0 0.514 0.244 0.771 0.823 0.771h0.334c0.887 0 1.119-0.694 1.119-1.286 0-0.9-0.489-1.401-1.324-1.401h-0.129c-0.579 0-0.823 0.27-0.823 0.784v1.131zM68.653 14.363c-1.581 0-3.189-0.951-3.189-3.034 0-2.070 1.607-2.957 3.15-2.957 1.594 0 3.189 0.951 3.189 3.034 0 2.070-1.595 2.957-3.15 2.957zM67.521 10.763c0 1.594 0.527 3.009 1.35 3.009 0.501 0 0.874-0.501 0.874-1.826 0-1.581-0.501-2.996-1.35-2.996-0.514 0-0.874 0.514-0.874 1.813zM74.597 14.363c-0.9 0-1.877-0.373-1.877-2.391v-2.044c0-0.591-0.334-0.694-0.81-0.681v-0.501l2.096-0.347c0.437-0.064 0.643 0.129 0.643 0.514v2.751c0 0.9 0.373 1.543 1.067 1.543 0.707 0 1.067-0.643 1.067-1.543v-1.736c0-0.591-0.334-0.694-0.81-0.681v-0.501l2.083-0.347c0.45-0.064 0.656 0.129 0.656 0.514v4.063c0 0.424 0.167 0.707 0.54 0.553v0.283c-0.18 0.437-0.643 0.553-1.080 0.553-0.926 0-1.183-0.579-1.247-0.861-0.039-0.18-0.141-0.27-0.231-0.27s-0.154 0.077-0.219 0.167c-0.36 0.489-0.861 0.964-1.877 0.964zM82.264 14.35c-1.183 0-1.903-0.656-1.903-1.903v-2.816c0-0.45-0.103-0.54-0.399-0.54h-0.579v-0.411c1.067-0.244 1.581-0.733 2.019-1.44 0.103-0.167 0.193-0.219 0.36-0.219h0.231c0.193 0 0.309 0.116 0.309 0.309l-0.013 0.797c0 0.283 0.141 0.36 0.797 0.36h0.836v0.681l-0.836-0.051c-0.656-0.039-0.797 0.077-0.797 0.54v2.726c0 0.707 0.077 1.183 0.707 1.183 0.167 0 0.424-0.026 0.669-0.206 0.167 0.206 0.231 0.386 0.064 0.54-0.296 0.257-0.823 0.45-1.466 0.45zM84.441 13.784c0.591-0.039 0.81-0.231 0.81-0.926v-2.944c0-0.604-0.334-0.707-0.797-0.669v-0.501l2.083-0.347c0.437-0.064 0.643 0.129 0.643 0.514v3.947c0 0.694 0.219 0.887 0.797 0.926v0.501h-3.536v-0.501zM84.943 6.777c0-0.617 0.514-1.093 1.119-1.093 0.591 0 1.093 0.476 1.093 1.093s-0.501 1.093-1.093 1.093c-0.604 0-1.119-0.476-1.119-1.093zM91.816 16.24c0.733-0.051 0.951-0.244 0.951-0.887v-1.376c0-0.231-0.116-0.309-0.231-0.309-0.064 0-0.129 0.026-0.18 0.077-0.257 0.257-0.81 0.617-1.62 0.617-1.324 0-2.546-0.977-2.546-2.867 0-2.057 1.427-3.124 2.906-3.124 1.286 0 1.826 0.784 2.301 0.784 0.45 0 0.63-0.771 0.99-0.771 0.231 0 0.309 0.129 0.309 0.309v6.66c0 0.643 0.219 0.836 0.797 0.887v0.489h-3.677v-0.489zM90.261 10.789c0 1.273 0.54 2.533 1.44 2.533 0.489 0 1.054-0.36 1.067-1.8-0.013-1.929-0.81-2.571-1.453-2.571-0.694 0-1.054 0.81-1.054 1.839zM97.99 14.363c-0.9 0-1.877-0.373-1.877-2.391v-2.044c0-0.591-0.334-0.694-0.81-0.681v-0.501l2.096-0.347c0.437-0.064 0.643 0.129 0.643 0.514v2.751c0 0.9 0.373 1.543 1.067 1.543 0.707 0 1.067-0.643 1.067-1.543v-1.736c0-0.591-0.334-0.694-0.81-0.681v-0.501l2.083-0.347c0.45-0.064 0.656 0.129 0.656 0.514v4.063c0 0.424 0.167 0.707 0.54 0.553v0.283c-0.18 0.437-0.643 0.553-1.080 0.553-0.926 0-1.183-0.579-1.247-0.861-0.039-0.18-0.141-0.27-0.231-0.27s-0.154 0.077-0.219 0.167c-0.36 0.489-0.861 0.964-1.877 0.964zM106.359 14.363c-1.607 0-3.201-0.926-3.201-2.944 0-2.109 1.723-3.047 3.317-3.047 1.363 0 2.469 0.681 2.469 1.813 0 1.157-1.119 1.221-2.25 1.311l-1.003 0.077c-0.219 0.013-0.334 0.116-0.334 0.411 0 0.951 1.029 1.376 1.877 1.376 0.45 0 1.067-0.129 1.53-0.656l0.386 0.347c-0.244 0.501-1.286 1.311-2.79 1.311zM105.266 10.519c0 0.373 0.090 0.566 0.424 0.553l0.463-0.051c0.887-0.090 1.067-0.321 1.067-0.823 0-0.617-0.257-1.234-0.926-1.234-0.836 0-1.029 0.939-1.029 1.556z"></path>
</symbol>

<symbol id="icon-facebook" viewBox="0 0 20 20">
<path fill="none" stroke="#e8e8e2" style="stroke: var(--color1, #e8e8e2)" stroke-linejoin="miter" stroke-linecap="butt" stroke-miterlimit="4" stroke-width="0.5" d="M5 0.25h10c2.623 0 4.75 2.127 4.75 4.75v10c0 2.623-2.127 4.75-4.75 4.75h-10c-2.623 0-4.75-2.127-4.75-4.75v-10c0-2.623 2.127-4.75 4.75-4.75z"></path>
<path fill="#e8e8e2" style="fill: var(--color1, #e8e8e2)" opacity="0.8" d="M11.32 5.74c0.090 0 0.18 0 0.36 0v1.35c-0.090 0-0.27 0-0.45 0s-0.36 0-0.45 0.090c-0.090 0.090-0.090 0.18-0.090 0.39 0 0.18 0 0.3 0 0.48h0.99v1.14h-0.99v4.95h-1.53v-4.98h-0.81v-1.14h0.81v-0.39c0-0.66 0.090-1.14 0.27-1.35 0.27-0.39 0.81-0.57 1.62-0.57 0.090 0.030 0.18 0.030 0.27 0.030z"></path>
</symbol>

<symbol id="icon-insta" viewBox="0 0 20 20">
<path fill="none" stroke="#e8e8e2" style="stroke: var(--color1, #e8e8e2)" stroke-linejoin="miter" stroke-linecap="butt" stroke-miterlimit="4" stroke-width="0.5" d="M5 0.25h10c2.623 0 4.75 2.127 4.75 4.75v10c0 2.623-2.127 4.75-4.75 4.75h-10c-2.623 0-4.75-2.127-4.75-4.75v-10c0-2.623 2.127-4.75 4.75-4.75z"></path>
<path fill="#e8e8e2" style="fill: var(--color1, #e8e8e2)" opacity="0.8" d="M14.769 8.033c-0.006-0.403-0.081-0.803-0.223-1.179-0.25-0.643-0.759-1.152-1.404-1.401-0.373-0.14-0.767-0.215-1.165-0.224-0.513-0.023-0.675-0.029-1.977-0.029s-1.469 0-1.978 0.029c-0.398 0.009-0.792 0.084-1.165 0.224-0.644 0.249-1.154 0.758-1.404 1.401-0.14 0.372-0.216 0.765-0.223 1.163-0.023 0.512-0.030 0.675-0.030 1.974s0 1.466 0.030 1.974c0.008 0.398 0.083 0.791 0.223 1.164 0.25 0.643 0.759 1.152 1.404 1.401 0.371 0.145 0.765 0.227 1.165 0.239 0.513 0.023 0.676 0.030 1.978 0.030s1.469 0 1.978-0.030c0.398-0.008 0.792-0.083 1.165-0.223 0.644-0.25 1.154-0.758 1.404-1.401 0.14-0.373 0.215-0.765 0.223-1.164 0.023-0.512 0.030-0.674 0.030-1.974-0.001-1.3-0.001-1.465-0.031-1.974zM9.996 12.449c-1.362 0-2.464-1.101-2.464-2.46s1.103-2.46 2.464-2.46c1.361 0 2.464 1.101 2.464 2.46s-1.104 2.46-2.464 2.46zM12.559 8.011c-0.318 0-0.575-0.257-0.575-0.574s0.256-0.574 0.575-0.574c0.317 0 0.574 0.257 0.574 0.574s-0.257 0.574-0.574 0.574z"></path>
<path fill="#e8e8e2" style="fill: var(--color1, #e8e8e2)" opacity="0.8" d="M9.997 11.491c0.829 0 1.502-0.672 1.502-1.502s-0.672-1.502-1.502-1.502c-0.829 0-1.502 0.672-1.502 1.502s0.672 1.502 1.502 1.502z"></path>
</symbol>

<symbol id="icon-youtube" viewBox="0 0 20 20">
<path fill="none" stroke="#e8e8e2" style="stroke: var(--color1, #e8e8e2)" stroke-linejoin="miter" stroke-linecap="butt" stroke-miterlimit="4" stroke-width="0.5" d="M5 0.25h10c2.623 0 4.75 2.127 4.75 4.75v10c0 2.623-2.127 4.75-4.75 4.75h-10c-2.623 0-4.75-2.127-4.75-4.75v-10c0-2.623 2.127-4.75 4.75-4.75z"></path>
<path fill="#e8e8e2" style="fill: var(--color1, #e8e8e2)" opacity="0.8" d="M13.090 6.25c-0.51-0.030-1.56-0.060-3.15-0.060h-0.21c-1.53 0-2.55 0.030-3.060 0.090-0.69 0.060-1.17 0.24-1.44 0.48-0.24 0.21-0.42 0.6-0.48 1.11-0.030 0.33-0.060 1.020-0.060 2.070v0.15c0 0.99 0.030 1.68 0.090 2.010 0.090 0.48 0.24 0.84 0.54 1.050 0.3 0.24 0.81 0.39 1.53 0.45 0.51 0.030 1.56 0.060 3.15 0.060h0.21c1.53 0 2.55-0.030 3.060-0.090 0.69-0.060 1.17-0.24 1.44-0.48 0.24-0.21 0.42-0.6 0.48-1.11 0.030-0.33 0.060-1.020 0.060-2.070v-0.15c0-0.99-0.030-1.68-0.090-2.010-0.090-0.48-0.24-0.84-0.54-1.050-0.3-0.24-0.81-0.39-1.53-0.45zM11.92 9.94l-3.3 1.98v-3.96l3.3 1.98z"></path>
</symbol>

</defs>
</svg>
