<svg width="0" height="0" class="hidden">
  <symbol fill="none" xmlns="http://www.w3.org/2000/svg" viewBox="0 0 12 8" id="arrow-down">
    <path d="M1 1.5L6 6.5L11 1.5" stroke="#010101" stroke-width="2" stroke-linecap="round" stroke-linejoin="round"></path>
  </symbol>
  <symbol fill="none" xmlns="http://www.w3.org/2000/svg" viewBox="0 0 14 11" id="check">
    <path d="M13 1.5L4.75 9.75L1 6" stroke="#E8E8E2" stroke-width="2" stroke-linecap="round" stroke-linejoin="round"></path>
  </symbol>
  <symbol fill="none" xmlns="http://www.w3.org/2000/svg" viewBox="0 0 16 16" id="close">
    <path d="M15.875 1.95648L14.0435 0.125L8 6.16852L1.95648 0.125L0.125 1.95648L6.16852 8L0.125 14.0435L1.95648 15.875L8 9.83148L14.0435 15.875L15.875 14.0435L9.83148 8L15.875 1.95648Z" fill="#010101"></path>
  </symbol>
  <symbol fill="none" xmlns="http://www.w3.org/2000/svg" viewBox="0 0 60 60" id="discount">
    <circle cx="30" cy="30" r="30" fill="#6D8434"></circle>
    <path d="M50.5248 39.1173L50.0882 40.2992L42.0374 37.3327L42.4739 36.1508L43.1382 36.3956L43.1465 36.373C42.8647 35.9239 42.6334 35.1992 42.9618 34.3099C43.5064 32.8353 45.0582 32.1666 46.9499 32.8636C48.8416 33.5606 49.5868 35.0757 49.0422 36.5504C48.7138 37.4397 48.0893 37.849 47.5379 37.9911L47.5296 38.0136L50.5248 39.1173ZM43.8554 34.8694C43.4978 35.8375 44.077 36.7287 45.3493 37.1975C46.633 37.6705 47.6415 37.3643 47.999 36.3962C48.3815 35.3606 47.6394 34.4605 46.5134 34.0456C45.3874 33.6307 44.2378 33.8337 43.8554 34.8694Z" fill="#FAFAFA"></path>
    <path d="M47.049 42.2421C47.2548 41.9615 47.6614 41.8128 48.0102 42.0677C48.359 42.3226 48.3302 42.7474 48.1244 43.0281C47.9044 43.3281 47.5145 43.4742 47.1658 43.2193C46.817 42.9644 46.829 42.5421 47.049 42.2421ZM46.5848 41.13L45.8397 42.1461L40.8889 38.5279L41.634 37.5118L46.5848 41.13Z" fill="#FAFAFA"></path>
    <path d="M40.928 43.6925C39.8889 44.2059 38.7834 44.7895 37.8507 43.6611C37.1015 42.7546 37.4134 41.5497 38.5622 40.604C40.0909 39.3456 41.3373 39.5164 42.2093 40.4772L41.2643 41.2551C40.7975 40.7845 40.2159 40.5328 39.2153 41.3565C38.539 41.9133 38.527 42.4827 38.7716 42.7787C39.2609 43.3706 39.8642 42.9517 40.6967 42.5462C41.5924 42.1041 42.7338 41.4132 43.6206 42.4862C44.2628 43.2631 44.0894 44.4472 42.9035 45.4235C41.6157 46.4836 40.4309 46.2932 39.6857 45.5234L40.6307 44.7454C41.0013 45.062 41.5 45.2887 42.2597 44.6634C42.8434 44.1829 42.9749 43.7016 42.6997 43.3686C42.3022 42.8876 41.7435 43.2853 40.928 43.6925Z" fill="#FAFAFA"></path>
    <path d="M34.4064 47.1788C34.6535 47.7539 35.2728 48.342 36.2954 47.9947C37.4657 47.5972 37.6245 46.4281 37.2522 45.3379C36.88 44.2477 36.0502 43.4143 34.8685 43.8156C33.8458 44.1629 33.7113 44.9943 33.8868 45.6571L32.6938 46.0622C32.3271 44.6913 33.0238 43.3522 34.535 42.839C36.2735 42.2485 37.8249 43.1157 38.4453 44.9327C39.0657 46.7497 38.3673 48.3809 36.6402 48.9675C35.129 49.4807 33.8109 48.8512 33.2133 47.584L34.4064 47.1788Z" fill="#FAFAFA"></path>
    <path d="M29.2618 43.5847C31.1783 43.7018 32.2593 45.1024 32.1437 47.0069C32.028 48.9114 30.7854 50.1699 28.869 50.0527C26.9526 49.9356 25.8715 48.535 25.9872 46.6305C26.1028 44.726 27.3454 43.4675 29.2618 43.5847ZM29.1993 44.6148C28.0015 44.5415 27.3212 45.4497 27.2448 46.7074C27.1677 47.9771 27.7338 48.9494 28.9316 49.0226C30.1293 49.0959 30.8089 48.1997 30.886 46.93C30.9624 45.6723 30.397 44.688 29.1993 44.6148Z" fill="#FAFAFA"></path>
    <path d="M20.1945 47.3901L19.0609 46.8401L21.7436 41.3261L22.8772 41.8761L22.5307 42.5882L22.5523 42.5987C23.0538 42.3085 23.836 42.1545 24.7861 42.6155C25.8117 43.1131 26.3327 44.0994 25.7185 45.362L23.8653 49.1711L22.7209 48.6158L24.4166 45.1304C24.7788 44.3859 24.6967 43.7592 23.9194 43.382C23.0449 42.9577 22.2262 43.2141 21.8272 44.0342L20.1945 47.3901Z" fill="#FAFAFA"></path>
    <path d="M14.6871 43.0438C13.9262 42.1948 13.8179 41.0851 14.8653 40.1501L18.0253 37.3291L18.8742 38.2763L15.9828 40.8576C15.3651 41.409 15.2035 42.0198 15.7801 42.6632C16.4288 43.3871 17.2839 43.4602 17.9642 42.8528L20.7483 40.3675L21.5892 41.3058L17.0148 45.3894L16.1739 44.4511L16.7647 43.9237L16.7487 43.9058C16.1744 43.9842 15.3918 43.8302 14.6871 43.0438Z" fill="#FAFAFA"></path>
    <path d="M12.0886 36.3298L12.5634 37.3794L15.5945 36.015C16.2291 35.7293 16.1672 35.3886 15.7872 34.6649L16.7282 34.2413C16.8868 34.4462 17.0334 34.6829 17.1718 34.9891C17.5873 35.9075 17.399 36.5976 16.2172 37.1296L13.0876 38.5383L13.4536 39.3474L12.5126 39.771L12.1466 38.9619L10.3849 39.755L9.86062 38.596L11.6224 37.803L11.1476 36.7534L12.0886 36.3298Z" fill="#FAFAFA"></path>
    <path d="M8.42598 23.7142L8.69984 22.4843L17.0752 24.3473L16.8013 25.5771L16.1102 25.4234L16.105 25.4468C16.4445 25.8543 16.771 26.5416 16.5649 27.4669C16.2232 29.0013 14.7754 29.8717 12.8075 29.434C10.8396 28.9963 9.89782 27.5943 10.2395 26.0599C10.4455 25.1346 11.0094 24.6453 11.5366 24.4307L11.5418 24.4073L8.42598 23.7142ZM15.6045 27.032C15.8288 26.0247 15.1353 25.2189 13.8117 24.9244C12.4763 24.6274 11.5181 25.0658 11.2938 26.0732C11.0539 27.1508 11.91 27.9436 13.0814 28.2041C14.2528 28.4647 15.3645 28.1096 15.6045 27.032Z" fill="#FAFAFA"></path>
    <path d="M11.4423 20.1526C11.2761 20.4583 10.8931 20.6601 10.5133 20.4542C10.1336 20.2483 10.1052 19.8233 10.2714 19.5176C10.4492 19.1908 10.8159 18.9938 11.1956 19.1997C11.5754 19.4057 11.6201 19.8258 11.4423 20.1526ZM12.0514 21.1927L12.6534 20.0859L18.0438 23.0091L17.4418 24.1159L12.0514 21.1927Z" fill="#FAFAFA"></path>
    <path d="M17.3268 17.8759C18.2897 17.2308 19.3092 16.5074 20.3815 17.504C21.2429 18.3047 21.0915 19.5401 20.0765 20.6282C18.7258 22.076 17.4678 22.0699 16.4776 21.2315L17.3126 20.3365C17.8369 20.7419 18.4465 20.9153 19.3305 19.9676C19.9281 19.3271 19.8654 18.7609 19.5842 18.4995C19.0216 17.9767 18.4783 18.4711 17.7062 18.9821C16.8762 19.5377 15.8351 20.3722 14.8155 19.4245C14.0772 18.7382 14.094 17.5415 15.1418 16.4184C16.2796 15.1987 17.4791 15.2323 18.3186 15.898L17.4837 16.793C17.0748 16.5276 16.5507 16.3682 15.8795 17.0877C15.3638 17.6405 15.2965 18.1349 15.6129 18.429C16.0699 18.8538 16.5717 18.3863 17.3268 17.8759Z" fill="#FAFAFA"></path>
    <path d="M23.2429 13.5934C22.9201 13.0571 22.2268 12.5584 21.2606 13.0409C20.1548 13.5932 20.1561 14.7729 20.6727 15.8026C21.1894 16.8322 22.1246 17.5455 23.2411 16.9879C24.2073 16.5054 24.2279 15.6634 23.9641 15.0306L25.0913 14.4677C25.6405 15.7762 25.1318 17.1972 23.704 17.9103C22.0614 18.7306 20.4066 18.0816 19.5455 16.3656C18.6844 14.6495 19.1552 12.9389 20.787 12.1239C22.2149 11.4108 23.6063 11.856 24.3702 13.0304L23.2429 13.5934Z" fill="#FAFAFA"></path>
    <path d="M28.8223 16.4354C26.9074 16.5748 25.6485 15.3309 25.5083 13.4281C25.368 11.5253 26.431 10.1123 28.3459 9.97288C30.2609 9.83344 31.5197 11.0773 31.66 12.9801C31.8002 14.883 30.7372 16.2959 28.8223 16.4354ZM28.7464 15.4061C29.9433 15.319 30.4959 14.3282 30.4033 13.0716C30.3098 11.8031 29.6186 10.9149 28.4218 11.0021C27.225 11.0892 26.6714 12.068 26.7649 13.3366C26.8576 14.5932 27.5496 15.4933 28.7464 15.4061Z" fill="#FAFAFA"></path>
    <path d="M37.3489 11.4477L38.5455 11.8424L36.6208 17.6645L35.4243 17.2698L35.6728 16.5178L35.6501 16.5103C35.1917 16.8645 34.4371 17.121 33.4342 16.7902C32.3516 16.433 31.7041 15.5244 32.1448 14.1914L33.4743 10.1695L34.6823 10.568L33.4657 14.2481C33.2058 15.0342 33.3706 15.6446 34.1911 15.9153C35.1142 16.2198 35.8913 15.857 36.1776 14.9911L37.3489 11.4477Z" fill="#FAFAFA"></path>
    <path d="M43.3935 15.008C44.2591 15.7498 44.5121 16.8358 43.5967 17.9003L40.8346 21.1119L39.8687 20.2842L42.3961 17.3455C42.936 16.7178 43.016 16.091 42.3599 15.5288C41.6219 14.8963 40.7647 14.936 40.17 15.6275L37.7365 18.457L36.7798 17.6371L40.7782 12.988L41.7349 13.8079L41.2185 14.4083L41.2367 14.424C41.7957 14.2709 42.5916 14.3208 43.3935 15.008Z" fill="#FAFAFA"></path>
    <path d="M46.8444 21.2669L46.2326 20.2907L43.4126 22.0505C42.8222 22.4189 42.9293 22.7481 43.4034 23.4141L42.5279 23.9604C42.3432 23.7787 42.166 23.5639 41.9876 23.2792C41.4523 22.4251 41.546 21.7159 42.6455 21.0298L45.5571 19.2129L45.0855 18.4605L45.9611 17.9142L46.4326 18.6666L48.0717 17.6438L48.7472 18.7216L47.1082 19.7444L47.7199 20.7205L46.8444 21.2669Z" fill="#FAFAFA"></path>
    <path d="M32.9167 27.6667C27.6667 28.8333 26.4417 32.4325 25.2284 35.4483L26.3309 35.8333L26.885 34.4917C27.165 34.5908 27.4567 34.6667 27.6667 34.6667C34.0834 34.6667 35.8334 24.75 35.8334 24.75C35.25 25.9167 31.1667 26.0625 28.25 26.6458C25.3334 27.2292 24.1667 29.7083 24.1667 30.875C24.1667 32.0417 25.1875 33.0625 25.1875 33.0625C27.0834 27.6667 32.9167 27.6667 32.9167 27.6667Z" fill="#FAFAFA"></path>
  </symbol>
  <symbol fill="none" xmlns="http://www.w3.org/2000/svg" viewBox="0 0 28 28" id="facebook">
    <g opacity="0.8">
      <path d="M17.08 4.06011C17.29 4.06011 17.5 4.06011 17.92 4.06011V7.21011C17.71 7.21011 17.29 7.21011 16.87 7.21011C16.45 7.21011 16.03 7.21011 15.82 7.42011C15.61 7.63011 15.61 7.84011 15.61 8.33011C15.61 8.75011 15.61 9.03011 15.61 9.45011H17.92V12.1101H15.61V23.6601H12.04V12.0401H10.15V9.38011H12.04V8.47011C12.04 6.93011 12.25 5.81011 12.67 5.32011C13.3 4.41011 14.56 3.99011 16.45 3.99011C16.66 4.06011 16.87 4.06011 17.08 4.06011Z" fill="#E8E8E2"></path>
    </g>
  </symbol>
  <symbol fill="none" xmlns="http://www.w3.org/2000/svg" viewBox="0 0 28 28" id="instagram">
    <g opacity="0.8">
      <path d="M25.1279 9.41152C25.1142 8.47146 24.9401 7.53885 24.6067 6.65964C24.0233 5.15827 22.8354 3.97109 21.3315 3.38991C20.4621 3.06332 19.5428 2.88822 18.6124 2.86835C17.4158 2.81495 17.0364 2.80005 13.9988 2.80005C10.9612 2.80005 10.5719 2.80005 9.38397 2.86835C8.45478 2.88822 7.53554 3.06332 6.66606 3.38991C5.1622 3.97109 3.97304 5.15827 3.3909 6.65964C3.06375 7.52767 2.88712 8.44538 2.86971 9.37302C2.81622 10.5689 2.80005 10.9477 2.80005 13.9802C2.80005 17.0127 2.80005 17.4002 2.86971 18.5873C2.88837 19.5162 3.06375 20.4327 3.3909 21.3032C3.97428 22.8033 5.1622 23.9905 6.66731 24.5717C7.53306 24.9095 8.45229 25.1007 9.38521 25.1305C10.5831 25.1839 10.9625 25.2001 14.0001 25.2001C17.0376 25.2001 17.427 25.2001 18.6149 25.1305C19.5441 25.1119 20.4633 24.9368 21.334 24.6102C22.8379 24.0278 24.0258 22.8406 24.6092 21.3405C24.9363 20.4712 25.1117 19.5547 25.1304 18.6246C25.1839 17.43 25.2001 17.0512 25.2001 14.0174C25.1976 10.9849 25.1976 10.5999 25.1279 9.41152ZM13.9913 19.7149C10.8144 19.7149 8.24083 17.1456 8.24083 13.974C8.24083 10.8024 10.8144 8.23302 13.9913 8.23302C17.1658 8.23302 19.7419 10.8024 19.7419 13.974C19.7419 17.1456 17.1658 19.7149 13.9913 19.7149ZM19.9707 9.35936C19.2281 9.35936 18.6298 8.7608 18.6298 8.02067C18.6298 7.28055 19.2281 6.68199 19.9707 6.68199C20.7108 6.68199 21.3104 7.28055 21.3104 8.02067C21.3104 8.7608 20.7108 9.35936 19.9707 9.35936Z" fill="#E8E8E2"></path>
      <path d="M13.9931 17.4789C15.9281 17.4789 17.4966 15.9104 17.4966 13.9754C17.4966 12.0405 15.9281 10.4719 13.9931 10.4719C12.0582 10.4719 10.4896 12.0405 10.4896 13.9754C10.4896 15.9104 12.0582 17.4789 13.9931 17.4789Z" fill="#E8E8E2"></path>
    </g>
  </symbol>
  <symbol fill="none" xmlns="http://www.w3.org/2000/svg" viewBox="0 0 196 32" id="Logo">
    <circle cx="16" cy="16" r="16" fill="#6D8434"></circle>
    <path d="M16.93 8.88995C16.6405 8.45006 16.2514 8.08462 15.7942 7.82328C14.5375 7.10245 12.9184 7.22912 11.4242 8.06578C8.65004 9.61995 6.83337 12.5416 6.83337 15.9999C6.83337 20.6166 10.175 24.3441 14.5392 25.0499C15.0159 25.1266 15.5034 25.1666 16 25.1666C17.211 25.1709 18.4107 24.9343 19.5294 24.4708C20.6482 24.0072 21.6635 23.3258 22.5165 22.4662C23.3695 21.6066 24.0431 20.586 24.498 19.4638C24.953 18.3415 25.1803 17.14 25.1667 15.9291C25.1475 14.3191 24.5017 12.3433 23.4809 10.7641C22.4642 9.19078 20.9009 7.75745 18.9584 7.77578C18.01 7.77745 17.3625 8.29912 16.93 8.89078V8.88995ZM22.4759 12.3441C22.1278 12.2881 21.7739 12.2789 21.4234 12.3166L20.4567 10.6916L19.025 11.5416L19.7684 12.7916C19.4574 12.938 19.1603 13.1123 18.8809 13.3124C18.876 13.2963 18.871 13.2802 18.8659 13.2641C18.6434 12.5891 18.2134 12.0349 17.64 11.4841L17.6434 11.4674C17.7009 11.1983 17.7925 10.8508 17.93 10.5133C18.2409 9.74995 18.6017 9.44078 18.9634 9.44078H18.9725C20.0484 9.42912 21.1692 10.2549 22.0817 11.6666C22.2234 11.8858 22.355 12.1116 22.4767 12.3433L22.4759 12.3441ZM17.3417 14.8416C17.0667 14.8483 16.7842 14.8791 16.5084 14.9391C16.2834 14.5626 15.9819 14.2375 15.6234 13.9849C14.965 13.5224 14.0634 13.2933 13.0884 13.6574C12.999 13.606 12.909 13.5557 12.8184 13.5066L15.5125 10.8658L14.3459 9.67578L11.15 12.8083C10.475 12.6124 9.84421 12.5424 9.27754 12.6208C9.92966 11.3118 10.9623 10.2306 12.24 9.51912C13.3767 8.88245 14.3542 8.91745 14.9659 9.26828C15.5492 9.60245 16.0334 10.3608 15.9117 11.7158L15.8742 12.1349L16.1892 12.4141C16.8742 13.0199 17.1592 13.4116 17.2825 13.7858C17.3692 14.0483 17.3975 14.3658 17.3417 14.8416ZM15 15.6791C14.2884 16.2749 13.8109 17.1108 13.5334 18.0141L11.055 15.2933L9.82254 16.4166L13.2292 20.1566C13.225 21.1499 13.3525 22.1666 13.5375 23.0858C12.0626 22.5794 10.7835 21.6235 9.87988 20.3525C8.97631 19.0816 8.49375 17.5594 8.50004 15.9999C8.50004 15.1333 8.74087 14.6608 9.02421 14.4541C9.29171 14.2574 9.87921 14.0966 11.0825 14.5408C11.5175 14.7016 12.0209 14.9483 12.5967 15.3066L13.015 15.5666L13.445 15.3249C13.9642 15.0333 14.3609 15.1366 14.665 15.3499C14.7984 15.4433 14.9125 15.5599 15 15.6791ZM16.4709 23.4849L22.5475 16.7874L21.3134 15.6674L18.87 18.3599L18.8759 17.5149L17.2092 17.5033L17.19 20.2116L15.1209 22.4924C14.9642 21.6416 14.8709 20.7274 14.9009 19.8699C14.9542 18.4074 15.5384 17.2058 16.4025 16.7299C16.7609 16.5324 17.3934 16.4549 17.8934 16.5433L18.635 16.6724L18.8392 15.9483C18.9459 15.5708 19.2284 15.1666 19.67 14.8066C20.1182 14.4444 20.6396 14.184 21.1984 14.0433C21.8659 13.8799 22.435 13.9649 22.81 14.2233C23.1375 14.4483 23.4667 14.9083 23.4975 15.8516V15.8666L23.5 15.9999C23.5084 17.91 22.7843 19.7506 21.4768 21.1429C20.1692 22.5353 18.3777 23.3734 16.4709 23.4849Z" fill="#E8E8E2"></path>
    <path d="M40 20.788C41.176 20.644 41.824 20.116 41.824 19.18V9.41202C41.824 8.47602 41.176 7.92402 40 7.80402V6.84402H52.192C52.408 6.84402 52.504 6.91602 52.528 7.08402C52.6 7.80402 52.648 8.52402 53.032 10.276H52.432C51.592 8.81202 50.872 8.04402 49.456 8.04402H47.416C46.336 8.04402 45.88 8.64402 45.88 9.60402V12.124C45.88 13.084 46.336 13.612 47.416 13.612H48.376C50.32 13.612 50.68 13.156 50.872 12.076H51.4V16.348H50.872C50.68 15.34 50.32 14.836 48.376 14.836H47.416C46.336 14.836 45.88 15.364 45.88 16.324V19.18C45.88 20.116 46.528 20.644 47.944 20.788V21.748H40V20.788Z" fill="#010101"></path>
    <path d="M59.0892 21.892C56.1372 21.892 53.1372 20.116 53.1372 16.228C53.1372 12.364 56.1372 10.708 59.0172 10.708C61.9932 10.708 64.9692 12.484 64.9692 16.372C64.9692 20.236 61.9932 21.892 59.0892 21.892ZM56.9772 15.172C56.9772 18.148 57.9612 20.788 59.4972 20.788C60.4332 20.788 61.1292 19.852 61.1292 17.38C61.1292 14.428 60.1932 11.788 58.6092 11.788C57.6492 11.788 56.9772 12.748 56.9772 15.172Z" fill="#010101"></path>
    <path d="M71.992 21.892C69.04 21.892 66.04 20.116 66.04 16.228C66.04 12.364 69.04 10.708 71.92 10.708C74.896 10.708 77.872 12.484 77.872 16.372C77.872 20.236 74.896 21.892 71.992 21.892ZM69.88 15.172C69.88 18.148 70.864 20.788 72.4 20.788C73.336 20.788 74.032 19.852 74.032 17.38C74.032 14.428 73.096 11.788 71.512 11.788C70.552 11.788 69.88 12.748 69.88 15.172Z" fill="#010101"></path>
    <path d="M83.5268 21.892C81.2708 21.892 78.9428 20.044 78.9428 16.492C78.9428 12.676 81.5588 10.708 84.1028 10.708C86.7428 10.708 87.4388 12.772 87.4388 10.348V8.90802C87.4388 7.78002 86.8148 7.58802 85.9268 7.66002V6.72402L89.8388 6.07602C90.6548 5.95602 91.0388 6.31602 91.0388 7.03602V19.3C91.0388 20.092 91.3508 20.62 92.0468 20.332V20.86C91.7108 21.676 90.8468 21.892 90.1028 21.892C89.2868 21.892 88.2548 21.628 87.9668 20.908C87.7748 20.452 87.5588 20.212 87.1988 20.212C86.7188 20.212 85.7588 21.892 83.5268 21.892ZM82.8068 15.244C82.8068 17.62 83.8628 19.948 85.3988 19.948C86.3348 19.948 87.4388 19.276 87.4388 17.26V16.132C87.4388 13.012 85.9748 11.788 84.7748 11.788C83.5508 11.788 82.8068 13.3 82.8068 15.244Z" fill="#010101"></path>
    <path d="M97.0844 20.788C98.2604 20.644 98.9084 20.116 98.9084 19.18V9.43602C98.9084 8.47602 98.2604 7.92402 97.0844 7.80402V6.84402H104.5C109.204 6.84402 111.532 7.97202 111.532 10.396C111.532 11.764 110.74 13.108 108.004 13.54C111.076 13.972 112.396 15.412 112.396 17.452C112.396 20.236 109.924 21.748 106.564 21.748C104.644 21.748 100.564 21.148 97.0844 21.748V20.788ZM102.964 19.54C102.964 20.164 103.348 20.452 104.044 20.452H104.884C106.708 20.452 108.076 19.756 108.076 17.428C108.076 15.172 106.684 14.188 104.044 14.188C103.42 14.188 102.964 14.668 102.964 15.628V19.54ZM102.964 11.596C102.964 12.556 103.42 13.036 104.5 13.036H105.124C106.78 13.036 107.212 11.74 107.212 10.636C107.212 8.95602 106.3 8.02002 104.74 8.02002H104.5C103.42 8.02002 102.964 8.52402 102.964 9.48402V11.596Z" fill="#010101"></path>
    <path d="M119.431 21.892C116.479 21.892 113.479 20.116 113.479 16.228C113.479 12.364 116.479 10.708 119.359 10.708C122.335 10.708 125.311 12.484 125.311 16.372C125.311 20.236 122.335 21.892 119.431 21.892ZM117.319 15.172C117.319 18.148 118.303 20.788 119.839 20.788C120.775 20.788 121.471 19.852 121.471 17.38C121.471 14.428 120.535 11.788 118.951 11.788C117.991 11.788 117.319 12.748 117.319 15.172Z" fill="#010101"></path>
    <path d="M130.528 21.892C128.848 21.892 127.024 21.196 127.024 17.428V13.612C127.024 12.508 126.4 12.316 125.512 12.34V11.404L129.424 10.756C130.24 10.636 130.624 10.996 130.624 11.716V16.852C130.624 18.532 131.32 19.732 132.616 19.732C133.936 19.732 134.608 18.532 134.608 16.852V13.612C134.608 12.508 133.984 12.316 133.096 12.34V11.404L136.984 10.756C137.824 10.636 138.208 10.996 138.208 11.716V19.3C138.208 20.092 138.52 20.62 139.216 20.332V20.86C138.88 21.676 138.016 21.892 137.2 21.892C135.472 21.892 134.992 20.812 134.872 20.284C134.8 19.948 134.608 19.78 134.44 19.78C134.272 19.78 134.152 19.924 134.032 20.092C133.36 21.004 132.424 21.892 130.528 21.892Z" fill="#010101"></path>
    <path d="M144.84 21.868C142.632 21.868 141.288 20.644 141.288 18.316V13.06C141.288 12.22 141.096 12.052 140.544 12.052H139.464V11.284C141.456 10.828 142.416 9.91602 143.232 8.59602C143.424 8.28402 143.592 8.18802 143.904 8.18802H144.336C144.696 8.18802 144.912 8.40402 144.912 8.76402L144.888 10.252C144.888 10.78 145.152 10.924 146.376 10.924H147.936V12.196L146.376 12.1C145.152 12.028 144.888 12.244 144.888 13.108V18.196C144.888 19.516 145.032 20.404 146.208 20.404C146.52 20.404 147 20.356 147.456 20.02C147.768 20.404 147.888 20.74 147.576 21.028C147.024 21.508 146.04 21.868 144.84 21.868Z" fill="#010101"></path>
    <path d="M148.904 20.812C150.008 20.74 150.416 20.38 150.416 19.084V13.588C150.416 12.46 149.792 12.268 148.928 12.34V11.404L152.816 10.756C153.632 10.636 154.016 10.996 154.016 11.716V19.084C154.016 20.38 154.424 20.74 155.504 20.812V21.748H148.904V20.812ZM149.84 7.73202C149.84 6.58002 150.8 5.69202 151.928 5.69202C153.032 5.69202 153.968 6.58002 153.968 7.73202C153.968 8.88402 153.032 9.77202 151.928 9.77202C150.8 9.77202 149.84 8.88402 149.84 7.73202Z" fill="#010101"></path>
    <path d="M162.671 25.396C164.039 25.3 164.447 24.94 164.447 23.74V21.172C164.447 20.74 164.231 20.596 164.015 20.596C163.895 20.596 163.775 20.644 163.679 20.74C163.199 21.22 162.167 21.892 160.655 21.892C158.183 21.892 155.903 20.068 155.903 16.54C155.903 12.7 158.567 10.708 161.327 10.708C163.727 10.708 164.735 12.172 165.623 12.172C166.463 12.172 166.799 10.732 167.471 10.732C167.903 10.732 168.047 10.972 168.047 11.308V23.74C168.047 24.94 168.455 25.3 169.535 25.396V26.308H162.671V25.396ZM159.767 15.22C159.767 17.596 160.775 19.948 162.455 19.948C163.367 19.948 164.423 19.276 164.447 16.588C164.423 12.988 162.935 11.788 161.735 11.788C160.439 11.788 159.767 13.3 159.767 15.22Z" fill="#010101"></path>
    <path d="M174.194 21.892C172.514 21.892 170.69 21.196 170.69 17.428V13.612C170.69 12.508 170.066 12.316 169.178 12.34V11.404L173.09 10.756C173.906 10.636 174.29 10.996 174.29 11.716V16.852C174.29 18.532 174.986 19.732 176.282 19.732C177.602 19.732 178.274 18.532 178.274 16.852V13.612C178.274 12.508 177.65 12.316 176.762 12.34V11.404L180.65 10.756C181.49 10.636 181.874 10.996 181.874 11.716V19.3C181.874 20.092 182.186 20.62 182.882 20.332V20.86C182.546 21.676 181.682 21.892 180.866 21.892C179.138 21.892 178.658 20.812 178.538 20.284C178.466 19.948 178.274 19.78 178.106 19.78C177.938 19.78 177.818 19.924 177.698 20.092C177.026 21.004 176.09 21.892 174.194 21.892Z" fill="#010101"></path>
    <path d="M189.818 21.892C186.818 21.892 183.842 20.164 183.842 16.396C183.842 12.46 187.058 10.708 190.034 10.708C192.578 10.708 194.642 11.98 194.642 14.092C194.642 16.252 192.554 16.372 190.442 16.54L188.57 16.684C188.162 16.708 187.946 16.9 187.946 17.452C187.946 19.228 189.866 20.02 191.45 20.02C192.29 20.02 193.442 19.78 194.306 18.796L195.026 19.444C194.57 20.38 192.626 21.892 189.818 21.892ZM187.778 14.716C187.778 15.412 187.946 15.772 188.57 15.748L189.434 15.652C191.09 15.484 191.426 15.052 191.426 14.116C191.426 12.964 190.946 11.812 189.698 11.812C188.138 11.812 187.778 13.564 187.778 14.716Z" fill="#010101"></path>
  </symbol>
  <symbol fill="none" xmlns="http://www.w3.org/2000/svg" viewBox="0 0 197 32" id="Logo-footer">
    <circle cx="16" cy="16" r="16" fill="#E8E8E2"></circle>
    <path d="M16.93 8.88995C16.6405 8.45006 16.2514 8.08462 15.7942 7.82328C14.5375 7.10245 12.9184 7.22912 11.4242 8.06578C8.65004 9.61995 6.83337 12.5416 6.83337 15.9999C6.83337 20.6166 10.175 24.3441 14.5392 25.0499C15.0159 25.1266 15.5034 25.1666 16 25.1666C17.211 25.1709 18.4107 24.9343 19.5294 24.4708C20.6482 24.0072 21.6635 23.3258 22.5165 22.4662C23.3695 21.6066 24.0431 20.586 24.498 19.4638C24.953 18.3415 25.1803 17.14 25.1667 15.9291C25.1475 14.3191 24.5017 12.3433 23.4809 10.7641C22.4642 9.19078 20.9009 7.75745 18.9584 7.77578C18.01 7.77745 17.3625 8.29912 16.93 8.89078V8.88995ZM22.4759 12.3441C22.1278 12.2881 21.7739 12.2789 21.4234 12.3166L20.4567 10.6916L19.025 11.5416L19.7684 12.7916C19.4574 12.938 19.1603 13.1123 18.8809 13.3124C18.876 13.2963 18.871 13.2802 18.8659 13.2641C18.6434 12.5891 18.2134 12.0349 17.64 11.4841L17.6434 11.4674C17.7009 11.1983 17.7925 10.8508 17.93 10.5133C18.2409 9.74995 18.6017 9.44078 18.9634 9.44078H18.9725C20.0484 9.42912 21.1692 10.2549 22.0817 11.6666C22.2234 11.8858 22.355 12.1116 22.4767 12.3433L22.4759 12.3441ZM17.3417 14.8416C17.0667 14.8483 16.7842 14.8791 16.5084 14.9391C16.2834 14.5626 15.9819 14.2375 15.6234 13.9849C14.965 13.5224 14.0634 13.2933 13.0884 13.6574C12.999 13.606 12.909 13.5557 12.8184 13.5066L15.5125 10.8658L14.3459 9.67578L11.15 12.8083C10.475 12.6124 9.84421 12.5424 9.27754 12.6208C9.92966 11.3118 10.9623 10.2306 12.24 9.51912C13.3767 8.88245 14.3542 8.91745 14.9659 9.26828C15.5492 9.60245 16.0334 10.3608 15.9117 11.7158L15.8742 12.1349L16.1892 12.4141C16.8742 13.0199 17.1592 13.4116 17.2825 13.7858C17.3692 14.0483 17.3975 14.3658 17.3417 14.8416ZM15 15.6791C14.2884 16.2749 13.8109 17.1108 13.5334 18.0141L11.055 15.2933L9.82254 16.4166L13.2292 20.1566C13.225 21.1499 13.3525 22.1666 13.5375 23.0858C12.0626 22.5794 10.7835 21.6235 9.87988 20.3525C8.97631 19.0816 8.49375 17.5594 8.50004 15.9999C8.50004 15.1333 8.74087 14.6608 9.02421 14.4541C9.29171 14.2574 9.87921 14.0966 11.0825 14.5408C11.5175 14.7016 12.0209 14.9483 12.5967 15.3066L13.015 15.5666L13.445 15.3249C13.9642 15.0333 14.3609 15.1366 14.665 15.3499C14.7984 15.4433 14.9125 15.5599 15 15.6791ZM16.4709 23.4849L22.5475 16.7874L21.3134 15.6674L18.87 18.3599L18.8759 17.5149L17.2092 17.5033L17.19 20.2116L15.1209 22.4924C14.9642 21.6416 14.8709 20.7274 14.9009 19.8699C14.9542 18.4074 15.5384 17.2058 16.4025 16.7299C16.7609 16.5324 17.3934 16.4549 17.8934 16.5433L18.635 16.6724L18.8392 15.9483C18.9459 15.5708 19.2284 15.1666 19.67 14.8066C20.1182 14.4444 20.6396 14.184 21.1984 14.0433C21.8659 13.8799 22.435 13.9649 22.81 14.2233C23.1375 14.4483 23.4667 14.9083 23.4975 15.8516V15.8666L23.5 15.9999C23.5084 17.91 22.7843 19.7506 21.4768 21.1429C20.1692 22.5353 18.3777 23.3734 16.4709 23.4849Z" fill="#6D8434"></path>
    <path d="M40.72 23.04C41.896 22.896 42.544 22.368 42.544 21.432V11.664C42.544 10.728 41.896 10.176 40.72 10.056V9.096H52.912C53.128 9.096 53.224 9.168 53.248 9.336C53.32 10.056 53.368 10.776 53.752 12.528H53.152C52.312 11.064 51.592 10.296 50.176 10.296H48.136C47.056 10.296 46.6 10.896 46.6 11.856V14.376C46.6 15.336 47.056 15.864 48.136 15.864H49.096C51.04 15.864 51.4 15.408 51.592 14.328H52.12V18.6H51.592C51.4 17.592 51.04 17.088 49.096 17.088H48.136C47.056 17.088 46.6 17.616 46.6 18.576V21.432C46.6 22.368 47.248 22.896 48.664 23.04V24H40.72V23.04ZM59.8092 24.144C56.8572 24.144 53.8572 22.368 53.8572 18.48C53.8572 14.616 56.8572 12.96 59.7372 12.96C62.7132 12.96 65.6892 14.736 65.6892 18.624C65.6892 22.488 62.7132 24.144 59.8092 24.144ZM57.6972 17.424C57.6972 20.4 58.6812 23.04 60.2172 23.04C61.1532 23.04 61.8492 22.104 61.8492 19.632C61.8492 16.68 60.9132 14.04 59.3292 14.04C58.3692 14.04 57.6972 15 57.6972 17.424ZM72.712 24.144C69.76 24.144 66.76 22.368 66.76 18.48C66.76 14.616 69.76 12.96 72.64 12.96C75.616 12.96 78.592 14.736 78.592 18.624C78.592 22.488 75.616 24.144 72.712 24.144ZM70.6 17.424C70.6 20.4 71.584 23.04 73.12 23.04C74.056 23.04 74.752 22.104 74.752 19.632C74.752 16.68 73.816 14.04 72.232 14.04C71.272 14.04 70.6 15 70.6 17.424ZM84.2468 24.144C81.9908 24.144 79.6628 22.296 79.6628 18.744C79.6628 14.928 82.2788 12.96 84.8228 12.96C87.4628 12.96 88.1588 15.024 88.1588 12.6V11.16C88.1588 10.032 87.5348 9.84 86.6468 9.912V8.976L90.5588 8.328C91.3748 8.208 91.7588 8.568 91.7588 9.288V21.552C91.7588 22.344 92.0708 22.872 92.7668 22.584V23.112C92.4308 23.928 91.5668 24.144 90.8228 24.144C90.0068 24.144 88.9748 23.88 88.6868 23.16C88.4948 22.704 88.2788 22.464 87.9188 22.464C87.4388 22.464 86.4788 24.144 84.2468 24.144ZM83.5268 17.496C83.5268 19.872 84.5828 22.2 86.1188 22.2C87.0548 22.2 88.1588 21.528 88.1588 19.512V18.384C88.1588 15.264 86.6948 14.04 85.4948 14.04C84.2708 14.04 83.5268 15.552 83.5268 17.496ZM97.8044 23.04C98.9804 22.896 99.6284 22.368 99.6284 21.432V11.688C99.6284 10.728 98.9804 10.176 97.8044 10.056V9.096H105.22C109.924 9.096 112.252 10.224 112.252 12.648C112.252 14.016 111.46 15.36 108.724 15.792C111.796 16.224 113.116 17.664 113.116 19.704C113.116 22.488 110.644 24 107.284 24C105.364 24 101.284 23.4 97.8044 24V23.04ZM103.684 21.792C103.684 22.416 104.068 22.704 104.764 22.704H105.604C107.428 22.704 108.796 22.008 108.796 19.68C108.796 17.424 107.404 16.44 104.764 16.44C104.14 16.44 103.684 16.92 103.684 17.88V21.792ZM103.684 13.848C103.684 14.808 104.14 15.288 105.22 15.288H105.844C107.5 15.288 107.932 13.992 107.932 12.888C107.932 11.208 107.02 10.272 105.46 10.272H105.22C104.14 10.272 103.684 10.776 103.684 11.736V13.848ZM120.151 24.144C117.199 24.144 114.199 22.368 114.199 18.48C114.199 14.616 117.199 12.96 120.079 12.96C123.055 12.96 126.031 14.736 126.031 18.624C126.031 22.488 123.055 24.144 120.151 24.144ZM118.039 17.424C118.039 20.4 119.023 23.04 120.559 23.04C121.495 23.04 122.191 22.104 122.191 19.632C122.191 16.68 121.255 14.04 119.671 14.04C118.711 14.04 118.039 15 118.039 17.424ZM131.248 24.144C129.568 24.144 127.744 23.448 127.744 19.68V15.864C127.744 14.76 127.12 14.568 126.232 14.592V13.656L130.144 13.008C130.96 12.888 131.344 13.248 131.344 13.968V19.104C131.344 20.784 132.04 21.984 133.336 21.984C134.656 21.984 135.328 20.784 135.328 19.104V15.864C135.328 14.76 134.704 14.568 133.816 14.592V13.656L137.704 13.008C138.544 12.888 138.928 13.248 138.928 13.968V21.552C138.928 22.344 139.24 22.872 139.936 22.584V23.112C139.6 23.928 138.736 24.144 137.92 24.144C136.192 24.144 135.712 23.064 135.592 22.536C135.52 22.2 135.328 22.032 135.16 22.032C134.992 22.032 134.872 22.176 134.752 22.344C134.08 23.256 133.144 24.144 131.248 24.144ZM145.56 24.12C143.352 24.12 142.008 22.896 142.008 20.568V15.312C142.008 14.472 141.816 14.304 141.264 14.304H140.184V13.536C142.176 13.08 143.136 12.168 143.952 10.848C144.144 10.536 144.312 10.44 144.624 10.44H145.056C145.416 10.44 145.632 10.656 145.632 11.016L145.608 12.504C145.608 13.032 145.872 13.176 147.096 13.176H148.656V14.448L147.096 14.352C145.872 14.28 145.608 14.496 145.608 15.36V20.448C145.608 21.768 145.752 22.656 146.928 22.656C147.24 22.656 147.72 22.608 148.176 22.272C148.488 22.656 148.608 22.992 148.296 23.28C147.744 23.76 146.76 24.12 145.56 24.12ZM149.624 23.064C150.728 22.992 151.136 22.632 151.136 21.336V15.84C151.136 14.712 150.512 14.52 149.648 14.592V13.656L153.536 13.008C154.352 12.888 154.736 13.248 154.736 13.968V21.336C154.736 22.632 155.144 22.992 156.224 23.064V24H149.624V23.064ZM150.56 9.984C150.56 8.832 151.52 7.944 152.648 7.944C153.752 7.944 154.688 8.832 154.688 9.984C154.688 11.136 153.752 12.024 152.648 12.024C151.52 12.024 150.56 11.136 150.56 9.984ZM163.391 27.648C164.759 27.552 165.167 27.192 165.167 25.992V23.424C165.167 22.992 164.951 22.848 164.735 22.848C164.615 22.848 164.495 22.896 164.399 22.992C163.919 23.472 162.887 24.144 161.375 24.144C158.903 24.144 156.623 22.32 156.623 18.792C156.623 14.952 159.287 12.96 162.047 12.96C164.447 12.96 165.455 14.424 166.343 14.424C167.183 14.424 167.519 12.984 168.191 12.984C168.623 12.984 168.767 13.224 168.767 13.56V25.992C168.767 27.192 169.175 27.552 170.255 27.648V28.56H163.391V27.648ZM160.487 17.472C160.487 19.848 161.495 22.2 163.175 22.2C164.087 22.2 165.143 21.528 165.167 18.84C165.143 15.24 163.655 14.04 162.455 14.04C161.159 14.04 160.487 15.552 160.487 17.472ZM174.914 24.144C173.234 24.144 171.41 23.448 171.41 19.68V15.864C171.41 14.76 170.786 14.568 169.898 14.592V13.656L173.81 13.008C174.626 12.888 175.01 13.248 175.01 13.968V19.104C175.01 20.784 175.706 21.984 177.002 21.984C178.322 21.984 178.994 20.784 178.994 19.104V15.864C178.994 14.76 178.37 14.568 177.482 14.592V13.656L181.37 13.008C182.21 12.888 182.594 13.248 182.594 13.968V21.552C182.594 22.344 182.906 22.872 183.602 22.584V23.112C183.266 23.928 182.402 24.144 181.586 24.144C179.858 24.144 179.378 23.064 179.258 22.536C179.186 22.2 178.994 22.032 178.826 22.032C178.658 22.032 178.538 22.176 178.418 22.344C177.746 23.256 176.81 24.144 174.914 24.144ZM190.538 24.144C187.538 24.144 184.562 22.416 184.562 18.648C184.562 14.712 187.778 12.96 190.754 12.96C193.298 12.96 195.362 14.232 195.362 16.344C195.362 18.504 193.274 18.624 191.162 18.792L189.29 18.936C188.882 18.96 188.666 19.152 188.666 19.704C188.666 21.48 190.586 22.272 192.17 22.272C193.01 22.272 194.162 22.032 195.026 21.048L195.746 21.696C195.29 22.632 193.346 24.144 190.538 24.144ZM188.498 16.968C188.498 17.664 188.666 18.024 189.29 18L190.154 17.904C191.81 17.736 192.146 17.304 192.146 16.368C192.146 15.216 191.666 14.064 190.418 14.064C188.858 14.064 188.498 15.816 188.498 16.968Z" fill="#E8E8E2"></path>
  </symbol>
  
  <symbol fill="none" xmlns="http://www.w3.org/2000/svg" viewBox="0 0 100 100" id="organic_food">
    <circle cx="50" cy="50" r="50" fill="#FDC152"></circle>
    <path d="M78.6682 53.6929C78.9928 51.1536 80.9513 49.8394 83.4748 50.162C85.9982 50.4846 87.5631 52.2493 87.2384 54.7886C86.9138 57.328 84.9553 58.6422 82.4319 58.3196C79.9084 57.997 78.3435 56.2323 78.6682 53.6929ZM80.0331 53.8674C79.8302 55.4545 80.9785 56.4401 82.6449 56.6531C84.3272 56.8682 85.6706 56.2012 85.8735 54.6141C86.0765 53.027 84.944 52.0435 83.2617 51.8284C81.5953 51.6154 80.236 52.2804 80.0331 53.8674Z" fill="#010101"></path>
    <path d="M84.8019 64.112C84.7058 64.3835 84.6213 64.5742 84.5111 64.7898L83.0178 64.2613L83.0285 64.2311C83.8241 62.7985 83.2309 61.2137 81.5868 60.6318L77.6502 59.2385L78.2107 57.6547L85.9182 60.3827L85.3576 61.9665L83.9096 61.454L83.899 61.4841C84.7201 62.233 85.1596 63.1014 84.8019 64.112Z" fill="#010101"></path>
    <path d="M80.6856 71.3104L79.7995 72.7376L73.3292 68.7203C71.331 67.4796 71.1987 65.7212 72.4224 63.7502C73.6631 61.7521 75.3934 61.3009 76.6552 61.8772L75.7606 63.3181C75.0645 63.0742 74.2985 63.2766 73.598 64.4048C72.8553 65.601 73.0192 66.5503 74.2698 67.3267L75.1125 67.85L75.1294 67.8228C74.8408 67.1351 74.7209 66.1755 75.4045 65.0745C76.4848 63.3346 78.5048 62.7808 80.6933 64.1396C82.8954 65.5069 83.2813 67.5545 82.201 69.2944C81.5174 70.3955 80.6042 70.7136 79.8869 70.7768L79.8701 70.804L80.6856 71.3104ZM76.4047 66.0722C75.6873 67.2276 76.0181 68.3935 77.4861 69.305C78.9542 70.2165 80.1458 69.9959 80.8632 68.8405C81.6397 67.5899 81.0984 66.3687 79.8071 65.5669C78.5294 64.7736 77.1812 64.8216 76.4047 66.0722Z" fill="#010101"></path>
    <path d="M73.3088 76.3305C73.7166 76.7596 74.2804 76.8418 75.0922 76.0703C76.0664 75.1444 76.1394 74.5012 75.4699 73.6806L76.6529 72.5563C77.6751 73.748 77.7931 75.3355 76.0071 77.0329C74.6965 78.2784 73.2484 78.7056 71.7493 77.1283L69.0709 74.31C68.6741 73.8925 68.3719 73.7603 67.9405 74.2586L67.3894 73.6788C67.5685 73.3098 67.7436 73.0993 67.9756 72.8788C68.625 72.2616 69.147 72.2069 69.8141 72.6766L69.8373 72.6546C69.7124 71.78 70.0434 70.7811 70.9596 69.9104C72.1658 68.764 73.5694 68.7545 74.5173 69.7519C75.7518 71.0508 75.175 72.3716 73.966 74.0724C73.2152 75.1171 72.7687 75.7622 73.3088 76.3305ZM71.6078 71.1265C70.5987 72.0854 70.3768 73.2455 71.2917 74.2081L72.1404 75.1011C72.2053 74.7746 72.5486 74.1835 73.0066 73.5274C73.8062 72.3481 73.9714 71.6393 73.3982 71.0362C72.8801 70.4911 72.2688 70.4982 71.6078 71.1265Z" fill="#010101"></path>
    <path d="M67.4448 83.1918C66.1111 83.9211 64.6361 83.7247 63.7379 82.0822L61.0281 77.1267L62.5162 76.313L64.9957 80.8474C65.5253 81.816 66.2702 82.2111 67.281 81.6584C68.4181 81.0366 68.7719 79.9495 68.1885 78.8826L65.8011 74.5167L67.2751 73.7107L71.1978 80.8842L69.7238 81.6903L69.2171 80.7637L69.1891 80.7791C69.1171 81.5479 68.6801 82.5163 67.4448 83.1918Z" fill="#010101"></path>
    <path d="M62.2876 86.6196C62.7289 86.4764 63.2842 86.6326 63.462 87.1805C63.6399 87.7283 63.2771 88.1656 62.8358 88.3089C62.364 88.462 61.8288 88.3161 61.651 87.7682C61.4732 87.2203 61.8158 86.7727 62.2876 86.6196ZM62.6542 85.054L61.0562 85.5726L58.5324 77.7959L60.1303 77.2773L62.6542 85.054Z" fill="#010101"></path>
    <path d="M52.5935 84.1731C52.7625 84.9902 53.4141 85.9231 54.8424 85.7405C56.4771 85.5315 56.9969 84.0456 56.8021 82.522C56.6073 80.9984 55.7463 79.689 54.0957 79.9001C52.6674 80.0827 52.2694 81.1336 52.3216 82.0464L50.6552 82.2594C50.5427 80.3704 51.8104 78.805 53.9212 78.5352C56.3495 78.2247 58.1439 79.7696 58.4685 82.309C58.7932 84.8483 57.4452 86.795 55.0328 87.1034C52.922 87.3732 51.3688 86.2008 50.9271 84.3861L52.5935 84.1731Z" fill="#010101"></path>
    <path d="M36.3831 86.6594C37.4074 87.0293 37.8379 87.0463 38.1143 86.1605L38.3813 85.3051L36.9455 84.8571L37.3555 83.5436L38.7912 83.9916L40.8169 77.5004L42.4359 78.0056L40.4102 84.4969L41.5251 84.8448L41.1152 86.1583L40.0003 85.8104L39.6904 86.8032C39.1757 88.4527 38.292 88.8138 37.009 88.4135C36.6119 88.2895 36.2749 88.1341 35.9732 87.9729L36.3831 86.6594Z" fill="#010101"></path>
    <path d="M36.2615 75.218C38.5031 76.4545 39.0042 78.7592 37.7754 80.9868C36.5466 83.2143 34.3298 84.0198 32.0883 82.7832C29.8467 81.5467 29.3456 79.242 30.5744 77.0144C31.8032 74.7869 34.0199 73.9814 36.2615 75.218ZM35.5969 76.4228C34.1959 75.65 32.8569 76.3549 32.0454 77.8259C31.2262 79.3109 31.3519 80.8056 32.7529 81.5784C34.1539 82.3512 35.4852 81.6603 36.3044 80.1753C37.1158 78.7043 36.9979 77.1956 35.5969 76.4228Z" fill="#010101"></path>
    <path d="M30.3165 70.8576C32.1722 72.6212 32.0737 74.9777 30.3211 76.8217C28.5686 78.6658 26.2201 78.884 24.3645 77.1204C22.5088 75.3568 22.6073 73.0003 24.3599 71.1562C26.1124 69.3122 28.4609 69.094 30.3165 70.8576ZM29.3686 71.855C28.2088 70.7528 26.735 71.0958 25.5776 72.3136C24.4093 73.543 24.1526 75.0207 25.3124 76.123C26.4722 77.2252 27.935 76.8937 29.1033 75.6644C30.2607 74.4466 30.5284 72.9572 29.3686 71.855Z" fill="#010101"></path>
    <path d="M14.6384 69.4648L13.7733 68.0247L23.58 62.1337L24.4451 63.5738L23.6359 64.0599L23.6523 64.0874C24.3548 64.1693 25.3017 64.5338 25.9526 65.6173C27.0319 67.414 26.4321 69.5848 24.1279 70.969C21.8237 72.3532 19.6255 71.8632 18.5462 70.0664C17.8953 68.9829 17.9908 67.9923 18.3033 67.3006L18.2868 67.2732L14.6384 69.4648ZM24.6247 66.079C23.9162 64.8994 22.5057 64.7575 20.9558 65.6885C19.3923 66.6278 18.8689 67.9314 19.5774 69.111C20.3354 70.3728 21.8912 70.3528 23.2628 69.5289C24.6344 68.705 25.3827 67.3408 24.6247 66.079Z" fill="#010101"></path>
    <path d="M21.4023 51.1726C21.5011 53.7307 19.7863 55.3501 17.2442 55.4482C14.702 55.5464 12.8675 54.0641 12.7687 51.506C12.6699 48.9479 14.3847 47.3285 16.9268 47.2304C19.4689 47.1322 21.3035 48.6145 21.4023 51.1726ZM20.0273 51.2257C19.9656 49.6269 18.6704 48.8443 16.9917 48.9091C15.2969 48.9745 14.082 49.8541 14.1437 51.4529C14.2054 53.0517 15.4846 53.8349 17.1793 53.7695C18.8581 53.7047 20.089 52.8245 20.0273 51.2257Z" fill="#010101"></path>
    <path d="M13.6517 41.7503C13.7024 41.4668 13.7548 41.2649 13.8285 41.0343L15.3878 41.3132L15.3821 41.3447C14.8299 42.8875 15.6727 44.3548 17.3894 44.6619L21.5002 45.3972L21.2044 47.051L13.1561 45.6114L13.4519 43.9576L14.9639 44.2281L14.9695 44.1966C14.0376 43.591 13.4629 42.8056 13.6517 41.7503Z" fill="#010101"></path>
    <path d="M16.5203 34.0154L17.1632 32.4633L24.1995 35.3776C26.3725 36.2776 26.7885 37.9912 25.9007 40.1347C25.0007 42.3076 23.3665 43.0336 22.0279 42.6696L22.6769 41.1027C23.4033 41.2304 24.1263 40.9064 24.6345 39.6795C25.1733 38.3787 24.8575 37.4686 23.4975 36.9053L22.581 36.5257L22.5688 36.5552C22.9652 37.187 23.2392 38.1144 22.7432 39.3118C21.9596 41.2039 20.0562 42.0781 17.6762 41.0924C15.2815 40.1005 14.5684 38.1427 15.3521 36.2505C15.8481 35.0532 16.6975 34.5911 17.395 34.4124L17.4073 34.3828L16.5203 34.0154ZM21.5944 38.4896C22.1148 37.2331 21.5993 36.1364 20.0028 35.4751C18.4063 34.8139 17.2663 35.2249 16.7459 36.4814C16.1826 37.8414 16.9148 38.9586 18.3191 39.5403C19.7086 40.1158 21.0311 39.8496 21.5944 38.4896Z" fill="#010101"></path>
    <path d="M22.9864 27.8513C22.5154 27.4926 21.9458 27.5013 21.2673 28.3924C20.453 29.4616 20.4835 30.1083 21.2752 30.8117L20.2865 32.1101C19.0875 31.0965 18.718 29.5482 20.2107 27.5878C21.306 26.1494 22.6676 25.4969 24.3988 26.8151L27.4921 29.1706C27.9504 29.5195 28.2698 29.6018 28.6163 29.0412L29.2528 29.5258C29.1347 29.9186 28.9954 30.1543 28.8016 30.4089C28.2587 31.1218 27.7521 31.2589 27.0187 30.9016L26.9993 30.927C27.262 31.7705 27.0944 32.8094 26.3287 33.815C25.3206 35.1389 23.9364 35.372 22.8417 34.5384C21.416 33.4528 21.7749 32.057 22.6974 30.1852C23.2722 29.0342 23.6102 28.3262 22.9864 27.8513ZM25.495 32.7177C26.3383 31.6102 26.3725 30.4296 25.316 29.6251L24.3358 28.8787C24.3238 29.2115 24.0791 29.8497 23.7314 30.5704C23.13 31.862 23.0799 32.5881 23.7419 33.0921C24.3401 33.5477 24.9425 33.4433 25.495 32.7177Z" fill="#010101"></path>
    <path d="M27.5649 20.1931C28.7606 19.2547 30.2479 19.2062 31.4036 20.6789L34.8904 25.1221L33.5562 26.1691L30.3657 22.1035C29.6842 21.235 28.8845 20.9676 27.9783 21.6788C26.9587 22.4789 26.7882 23.6093 27.5389 24.5659L30.6109 28.4805L29.2893 29.5176L24.2418 23.0857L25.5634 22.0485L26.2153 22.8793L26.2405 22.8595C26.1852 22.0893 26.4572 21.0624 27.5649 20.1931Z" fill="#010101"></path>
    <path d="M32.1689 15.9042C31.757 16.1178 31.1835 16.0546 30.9185 15.5432C30.6534 15.0318 30.9397 14.541 31.3516 14.3275C31.792 14.0992 32.3438 14.1556 32.6089 14.667C32.874 15.1783 32.6093 15.676 32.1689 15.9042ZM32.0635 17.5087L33.555 16.7356L37.3176 23.9944L35.8261 24.7675L32.0635 17.5087Z" fill="#010101"></path>
    <path d="M42.1393 16.7226C41.8391 15.944 41.044 15.13 39.6646 15.5433C38.086 16.0164 37.8158 17.5672 38.2567 19.0386C38.6976 20.5099 39.7608 21.6612 41.3548 21.1835C42.7342 20.7702 42.9552 19.6683 42.7547 18.7763L44.364 18.2941C44.7834 20.1394 43.7882 21.8907 41.7498 22.5016C39.4048 23.2043 37.3823 21.9731 36.6474 19.5208C35.9125 17.0686 36.9246 14.9279 39.2543 14.2298C41.2927 13.619 43.0165 14.5221 43.7486 16.2403L42.1393 16.7226Z" fill="#010101"></path>
    <path d="M57.6609 11.6233C56.5899 11.4254 56.1625 11.4788 56.0342 12.3979L55.9103 13.2853L57.3999 13.4932L57.2097 14.856L55.7201 14.6481L54.7801 21.3828L53.1004 21.1484L54.0404 14.4137L52.8836 14.2522L53.0738 12.8894L54.2306 13.0509L54.3744 12.0208C54.6132 10.3094 55.4262 9.80901 56.7573 9.9948C57.1693 10.0523 57.5271 10.1507 57.8511 10.2605L57.6609 11.6233Z" fill="#010101"></path>
    <path d="M59.6757 22.8774C57.2624 22.0232 56.392 19.8312 57.2408 17.4329C58.0896 15.0347 60.1453 13.8783 62.5586 14.7325C64.9718 15.5867 65.8423 17.7787 64.9935 20.177C64.1447 22.5752 62.089 23.7316 59.6757 22.8774ZM60.1348 21.5802C61.6432 22.1141 62.8492 21.2001 63.4098 19.6164C63.9757 18.0176 63.6077 16.5635 62.0994 16.0297C60.5911 15.4958 59.3904 16.3947 58.8245 17.9935C58.264 19.5772 58.6265 21.0464 60.1348 21.5802Z" fill="#010101"></path>
    <path d="M66.1563 26.1284C64.0377 24.6914 63.7502 22.3504 65.1782 20.245C66.6062 18.1396 68.8875 17.5409 71.0062 18.9779C73.1248 20.4149 73.4123 22.7559 71.9843 24.8613C70.5563 26.9667 68.275 27.5653 66.1563 26.1284ZM66.9287 24.9896C68.2529 25.8877 69.6509 25.3086 70.594 23.9183C71.546 22.5147 71.5579 21.0148 70.2338 20.1167C68.9096 19.2186 67.5205 19.7844 66.5685 21.188C65.6255 22.5784 65.6046 24.0915 66.9287 24.9896Z" fill="#010101"></path>
    <path d="M82.0232 25.0949L83.1078 26.3779L74.3712 33.7634L73.2866 32.4804L74.0075 31.871L73.9869 31.8465C73.2803 31.8781 72.2873 31.67 71.4713 30.7047C70.1181 29.1041 70.3625 26.8652 72.4153 25.1299C74.4681 23.3945 76.7164 23.5262 78.0695 25.1269C78.8856 26.0922 78.9499 27.0853 78.7523 27.8181L78.7729 27.8425L82.0232 25.0949ZM72.708 30.0364C73.5964 31.0872 75.0114 31.0014 76.3921 29.8342C77.7851 28.6566 78.093 27.286 77.2046 26.2351C76.2543 25.111 74.7218 25.3799 73.4999 26.4129C72.278 27.4458 71.7577 28.9122 72.708 30.0364Z" fill="#010101"></path>
    <path d="M55 46C46 48 43.9 54.17 41.82 59.34L43.71 60L44.66 57.7C45.14 57.87 45.64 58 46 58C57 58 60 41 60 41C59 43 52 43.25 47 44.25C42 45.25 40 49.5 40 51.5C40 53.5 41.75 55.25 41.75 55.25C45 46 55 46 55 46Z" fill="#010101"></path>
  </symbol>

  <symbol fill="none" xmlns="http://www.w3.org/2000/svg" viewBox="0 0 16 16" id="search">
    <path d="M10.9167 9.66667H10.2583L10.025 9.44167C10.8699 8.46169 11.3343 7.21058 11.3333 5.91667C11.3333 4.84535 11.0157 3.7981 10.4205 2.90733C9.82527 2.01656 8.9793 1.3223 7.98954 0.912322C6.99977 0.502347 5.91066 0.395079 4.85993 0.604082C3.8092 0.813085 2.84404 1.32897 2.08651 2.08651C1.32897 2.84404 0.813085 3.8092 0.604082 4.85993C0.395079 5.91066 0.502347 6.99977 0.912322 7.98954C1.3223 8.9793 2.01656 9.82527 2.90733 10.4205C3.7981 11.0157 4.84535 11.3333 5.91667 11.3333C7.25834 11.3333 8.49167 10.8417 9.44167 10.025L9.66667 10.2583V10.9167L13.8333 15.075L15.075 13.8333L10.9167 9.66667ZM5.91667 9.66667C3.84167 9.66667 2.16667 7.99167 2.16667 5.91667C2.16667 3.84167 3.84167 2.16667 5.91667 2.16667C7.99167 2.16667 9.66667 3.84167 9.66667 5.91667C9.66667 7.99167 7.99167 9.66667 5.91667 9.66667Z" fill="#010101"></path>
  </symbol>
  <symbol fill="none" xmlns="http://www.w3.org/2000/svg" viewBox="0 0 12 12" id="shopping-cart">
    <path d="M1.79995 0.599976C1.64082 0.599976 1.48821 0.66319 1.37569 0.775711C1.26317 0.888233 1.19995 1.04085 1.19995 1.19998C1.19995 1.35911 1.26317 1.51172 1.37569 1.62424C1.48821 1.73676 1.64082 1.79998 1.79995 1.79998H2.53195L2.71495 2.53318C2.71677 2.54162 2.71877 2.55002 2.72095 2.55838L3.53575 5.81637L2.99995 6.35157C2.24395 7.10757 2.77915 8.39997 3.84835 8.39997H8.99995C9.15908 8.39997 9.31169 8.33676 9.42421 8.22424C9.53674 8.11172 9.59995 7.9591 9.59995 7.79997C9.59995 7.64084 9.53674 7.48823 9.42421 7.37571C9.31169 7.26319 9.15908 7.19997 8.99995 7.19997H3.84835L4.44835 6.59997H8.39995C8.51135 6.59992 8.62053 6.56884 8.71527 6.51024C8.81 6.45164 8.88656 6.36782 8.93635 6.26817L10.7363 2.66818C10.782 2.57672 10.8036 2.47511 10.799 2.37298C10.7944 2.27085 10.7638 2.17159 10.7101 2.08461C10.6563 1.99764 10.5813 1.92584 10.492 1.87602C10.4027 1.82621 10.3022 1.80003 10.1999 1.79998H3.76795L3.58195 1.05418C3.54945 0.924428 3.47452 0.809261 3.36908 0.726969C3.26363 0.644677 3.13371 0.599979 2.99995 0.599976H1.79995ZM9.59995 9.89997C9.59995 10.1387 9.50513 10.3676 9.33635 10.5364C9.16756 10.7052 8.93864 10.8 8.69995 10.8C8.46126 10.8 8.23234 10.7052 8.06355 10.5364C7.89477 10.3676 7.79995 10.1387 7.79995 9.89997C7.79995 9.66128 7.89477 9.43236 8.06355 9.26358C8.23234 9.0948 8.46126 8.99997 8.69995 8.99997C8.93864 8.99997 9.16756 9.0948 9.33635 9.26358C9.50513 9.43236 9.59995 9.66128 9.59995 9.89997ZM3.89995 10.8C4.13865 10.8 4.36756 10.7052 4.53635 10.5364C4.70513 10.3676 4.79995 10.1387 4.79995 9.89997C4.79995 9.66128 4.70513 9.43236 4.53635 9.26358C4.36756 9.0948 4.13865 8.99997 3.89995 8.99997C3.66126 8.99997 3.43234 9.0948 3.26355 9.26358C3.09477 9.43236 2.99995 9.66128 2.99995 9.89997C2.99995 10.1387 3.09477 10.3676 3.26355 10.5364C3.43234 10.7052 3.66126 10.8 3.89995 10.8Z" fill="#E8E8E2"></path>
  </symbol>
  <symbol fill="none" xmlns="http://www.w3.org/2000/svg" viewBox="0 0 28 28" id="youtube">
    <g opacity="0.8">
      <path fill-rule="evenodd" clip-rule="evenodd" d="M21.21 5.24986C20.02 5.17986 17.57 5.10986 13.86 5.10986H13.37C9.80004 5.10986 7.42007 5.17986 6.23007 5.31986C4.62007 5.45986 3.50004 5.87986 2.87004 6.43986C2.31004 6.92986 1.89005 7.83986 1.75005 9.02986C1.68005 9.79986 1.61005 11.4099 1.61005 13.8599V14.2099C1.61005 16.5199 1.68004 18.1299 1.82004 18.8999C2.03004 20.0199 2.38007 20.8599 3.08007 21.3499C3.78007 21.9099 4.97005 22.2599 6.65005 22.3999C7.84005 22.4699 10.2901 22.5399 14.0001 22.5399H14.4901C18.0601 22.5399 20.4401 22.4699 21.6301 22.3299C23.2401 22.1899 24.3601 21.7699 24.9901 21.2099C25.5501 20.7199 25.97 19.8099 26.11 18.6199C26.18 17.8499 26.2501 16.2399 26.2501 13.7899V13.4399C26.2501 11.1299 26.1801 9.51986 26.0401 8.74986C25.8301 7.62986 25.4801 6.78986 24.7801 6.29986C24.0801 5.73986 22.89 5.38986 21.21 5.24986ZM18.4801 13.8599L10.7801 18.4799V9.23986L18.4801 13.8599Z" fill="#E8E8E2"></path>
    </g>
  </symbol>
</svg>